<svg width="180" height="180" viewBox="0 0 180 180" fill="none" xmlns="http://www.w3.org/2000/svg">
<g clip-path="url(#clip0_838_70)">
<path d="M148.943 97.9057C148.942 97.3235 148.788 96.7518 148.494 96.2475C148.201 95.7432 147.779 95.3241 147.271 95.032L121.129 80.127V50.2364C121.128 49.6542 120.974 49.0823 120.681 48.5776C120.388 48.0728 119.967 47.653 119.46 47.3598L91.6754 31.4561C91.1668 31.1675 90.5909 31.0156 90.0048 31.0156C89.4188 31.0156 88.8429 31.1675 88.3343 31.4561L60.5529 47.3449L60.4477 47.4105C59.973 47.7144 59.5817 48.1303 59.3088 48.6208C59.0359 49.1114 58.8899 49.6614 58.8839 50.2215V80.127L32.7415 95.032L32.6303 95.0976C32.1551 95.4003 31.7628 95.8149 31.4884 96.3043C31.214 96.7937 31.0659 97.3428 31.0574 97.9027L30.9883 129.719C30.989 130.3 31.1428 130.871 31.4345 131.375C31.7262 131.879 32.1456 132.299 32.6513 132.593L60.3966 148.568L60.5048 148.624C60.9901 148.867 61.5252 148.995 62.0686 149C62.5157 148.993 62.9586 148.913 63.3798 148.765L63.5662 148.702L90.0003 133.63L116.254 148.574L116.353 148.624C116.837 148.87 117.373 148.999 117.917 148.999C118.461 148.999 118.997 148.87 119.481 148.624L119.535 148.598L147.34 132.587C147.843 132.289 148.259 131.869 148.55 131.365C148.841 130.862 148.996 130.293 149 129.713L148.943 97.9057ZM74.4286 92.9214L86.6592 99.885L86.5961 113.943L86.566 127.954L62.0867 141.89L37.6735 127.823L37.7366 99.8195L62.216 85.8833L74.4286 92.9214ZM114.447 80.1299L102.24 87.1293L90.0003 94.1287L77.7606 87.1323L65.5541 80.1329V52.1264L90.0003 38.1157L114.447 52.1264V80.1299ZM105.578 92.8797L117.785 85.8803L142.264 99.8165L142.327 127.82L117.914 141.884L93.4376 127.948L93.4076 113.937L93.3414 99.8761L105.578 92.8797Z" fill="white"/>
<path d="M60.7056 92.8647C60.4687 93.2332 60.3086 93.6449 60.2345 94.0755C60.1605 94.5062 60.174 94.9473 60.2743 95.3727C60.3746 95.7982 60.5596 96.1995 60.8186 96.553C61.0775 96.9066 61.4052 97.2053 61.7822 97.4316L76.0007 106.076L76.0518 106.106C76.8042 106.549 77.7022 106.68 78.5514 106.471C79.4007 106.263 80.1329 105.731 80.5898 104.991C80.822 104.623 80.978 104.212 81.0486 103.783C81.1193 103.354 81.1032 102.916 81.0014 102.493C80.8995 102.07 80.7139 101.672 80.4553 101.321C80.1967 100.97 79.8703 100.673 79.4951 100.448L65.3007 91.8034C64.9298 91.5703 64.5158 91.4127 64.0828 91.3399C63.6498 91.2671 63.2065 91.2804 62.7787 91.3792C62.351 91.478 61.9474 91.6602 61.5914 91.9153C61.2355 92.1703 60.9344 92.4931 60.7056 92.8647V92.8647Z" fill="white"/>
<path d="M90.8746 47.5536L105.093 56.1985L105.144 56.2283C105.657 56.5343 106.242 56.7008 106.84 56.7112V56.7112C107.41 56.7083 107.97 56.5617 108.467 56.2853C108.964 56.009 109.382 55.6118 109.682 55.1313C109.914 54.7627 110.07 54.3519 110.141 53.923C110.212 53.4941 110.196 53.0555 110.094 52.6327C109.992 52.21 109.806 51.8116 109.548 51.4606C109.289 51.1096 108.963 50.8131 108.588 50.5883L94.3931 41.9433C94.0215 41.6922 93.6024 41.5182 93.1612 41.4318C92.7199 41.3454 92.2656 41.3484 91.8255 41.4405C91.3855 41.5326 90.9688 41.7121 90.6005 41.968C90.2322 42.2239 89.9199 42.551 89.6824 42.9296C89.4449 43.3083 89.2872 43.7306 89.2186 44.1713C89.1501 44.6119 89.1722 45.0617 89.2835 45.4937C89.3949 45.9256 89.5933 46.3308 89.8667 46.6848C90.1402 47.0388 90.483 47.3343 90.8746 47.5536V47.5536Z" fill="white"/>
<path d="M119 98.2305L133.218 106.875L133.27 106.905C134.01 107.341 134.893 107.475 135.731 107.279C136.569 107.083 137.299 106.573 137.765 105.856L137.792 105.817C138.028 105.45 138.188 105.04 138.262 104.612C138.337 104.183 138.324 103.744 138.226 103.32C138.127 102.896 137.945 102.496 137.688 102.142C137.432 101.789 137.108 101.49 136.734 101.262L122.518 92.6173C122.147 92.3883 121.733 92.2341 121.301 92.1636C120.869 92.093 120.427 92.1075 120.001 92.2062C119.575 92.3049 119.172 92.4858 118.817 92.7387C118.461 92.9916 118.159 93.3114 117.928 93.68C117.697 94.0486 117.541 94.4587 117.47 94.8868C117.399 95.315 117.414 95.7528 117.513 96.1754C117.613 96.5979 117.795 96.9969 118.05 97.3495C118.305 97.7021 118.628 98.0015 119 98.2305V98.2305Z" fill="white"/>
</g>
<defs>
<clipPath id="clip0_838_70">
<rect width="118" height="118" fill="white" transform="translate(31 31)"/>
</clipPath>
</defs>
</svg>
