<svg id="Livello_1" data-name="Livello 1" xmlns="http://www.w3.org/2000/svg" viewBox="0 0 935.45 1023.5"><defs><style>.cls-1{fill:#fff;}</style></defs><path class="cls-1" d="M727.88,389.05a4.62,4.62,0,0,0-2.3-4l-90.19-51.87V229.07a4.61,4.61,0,0,0-2.3-4L540.72,171.7a4.64,4.64,0,0,0-4.59,0l-92.38,53.36a4.93,4.93,0,0,0-2.3,4V333.15L351.26,385a4.93,4.93,0,0,0-2.3,4l-.23,106.72a4.61,4.61,0,0,0,2.3,4l92.26,53.59a5.16,5.16,0,0,0,2.3.58,7.4,7.4,0,0,0,2.29-.46l46.24-26.62,44.3-25.48,90.54,52a4.91,4.91,0,0,0,4.59,0l92.27-53.59a4.79,4.79,0,0,0,2.29-4ZM533.6,442.87l-.11,50.72-87.9,50.49-87.68-51,.23-101.44,87.91-50.49,9.52,5.51,34.31,20,44,25.24Zm-39.13-84.35-43.83-25.36V231.71L538.42,181l87.79,50.72V333.15l-43.84,25.36-44,25.37ZM631.26,544.07l-87.9-50.49-.11-50.72L543,391.91l44-25.36,43.83-25.36,87.9,50.49.23,101.44Z" transform="translate(-71.08 -10.91)"/><path class="cls-1" d="M594.42,244.34a4.61,4.61,0,0,0,3.9-2.18,4.52,4.52,0,0,0-1.49-6.31l-47.28-29a4.59,4.59,0,0,0-4.82,7.81l47.28,29a4.84,4.84,0,0,0,2.41.69Z" transform="translate(-71.08 -10.91)"/><path class="cls-1" d="M690.35,405.8l-47.28-29a4.58,4.58,0,1,0-4.82,7.8l47.28,29a4.84,4.84,0,0,0,2.41.69,4.77,4.77,0,0,0,3.9-2.18A4.52,4.52,0,0,0,690.35,405.8Z" transform="translate(-71.08 -10.91)"/><path class="cls-1" d="M727.88,709.42a4.63,4.63,0,0,0-2.3-4l-90.19-51.86V549.45a4.62,4.62,0,0,0-2.3-4l-92.37-53.36a4.69,4.69,0,0,0-4.59,0l-92.38,53.36a4.93,4.93,0,0,0-2.3,4V653.53l-90.19,51.86a4.93,4.93,0,0,0-2.3,4l-.23,106.72a4.61,4.61,0,0,0,2.3,4l92.26,53.59a5.16,5.16,0,0,0,2.3.58,7.4,7.4,0,0,0,2.29-.46l46.24-26.62,44.3-25.48,90.54,52a4.91,4.91,0,0,0,4.59,0l92.27-53.59a4.79,4.79,0,0,0,2.29-4ZM533.6,763.24,533.49,814l-87.9,50.49-87.68-51,.23-101.44,87.91-50.49,9.52,5.51,34.31,20,44,25.25Zm-39.13-84.35-43.83-25.35V552.09l87.78-50.73,87.79,50.73V653.53l-43.84,25.35-44,25.37ZM631.26,864.44,543.36,814l-.11-50.72-.23-51,44-25.36,43.83-25.36,87.9,50.49.23,101.44Z" transform="translate(-71.08 -10.91)"/><path class="cls-1" d="M446.5,696A4.52,4.52,0,0,0,448,702.3l47.28,29a4.81,4.81,0,0,0,2.41.69,4.61,4.61,0,0,0,3.9-2.18,4.52,4.52,0,0,0-1.49-6.31l-47.28-29A4.52,4.52,0,0,0,446.5,696Z" transform="translate(-71.08 -10.91)"/><path class="cls-1" d="M450.24,228.86a4.61,4.61,0,0,0-2.3-4L357.74,173V68.89a4.62,4.62,0,0,0-2.29-4L263.07,11.51a4.69,4.69,0,0,0-4.59,0L166.1,64.87a4.92,4.92,0,0,0-2.29,4V173l-90.2,51.87a4.9,4.9,0,0,0-2.29,4l-.24,106.72a4.63,4.63,0,0,0,2.3,4l92.26,53.59a5.32,5.32,0,0,0,2.3.57,7.41,7.41,0,0,0,2.3-.46l46.24-26.62,44.3-25.47,90.54,52a4.91,4.91,0,0,0,4.59,0l92.26-53.59a4.78,4.78,0,0,0,2.3-4ZM256,282.68l-.12,50.72-87.9,50.5L80.27,333l.23-101.44L168.4,181l9.53,5.51,34.31,20,43.95,25.25Zm-39.13-84.34L173,173V71.53L260.78,20.8l87.78,50.73V173l-43.83,25.36-44,25.36ZM353.62,383.89l-87.9-50.5-.12-50.72-.23-51,43.95-25.36L353.16,181l87.9,50.5.23,101.44Z" transform="translate(-71.08 -10.91)"/><path class="cls-1" d="M450.24,549.23a4.61,4.61,0,0,0-2.3-4l-90.2-51.87V389.26a4.63,4.63,0,0,0-2.29-4l-92.38-53.35a4.64,4.64,0,0,0-4.59,0L166.1,385.24a4.92,4.92,0,0,0-2.29,4V493.34l-90.2,51.87a4.92,4.92,0,0,0-2.29,4l-.24,106.72a4.62,4.62,0,0,0,2.3,4l92.26,53.59a5.32,5.32,0,0,0,2.3.57,7.41,7.41,0,0,0,2.3-.46L216.48,687l44.3-25.47,90.54,52a4.83,4.83,0,0,0,4.59,0L448.17,660a4.76,4.76,0,0,0,2.3-4ZM256,603.05l-.12,50.73-87.9,50.49L80.27,653.32l.23-101.44,87.9-50.49,9.53,5.5,34.31,20,43.95,25.25Zm-39.13-84.34L173,493.35V391.9l87.79-50.72,87.78,50.72V493.34L304.73,518.7l-44,25.36ZM353.62,704.26l-87.9-50.49L265.6,603l-.23-50.95,43.95-25.35,43.84-25.36,87.9,50.49.23,101.44Z" transform="translate(-71.08 -10.91)"/><path class="cls-1" d="M316.78,404.53a4.64,4.64,0,0,0,3.9-2.18,4.52,4.52,0,0,0-1.49-6.31l-47.28-29a4.59,4.59,0,0,0-4.82,7.81l47.28,29a4.79,4.79,0,0,0,2.41.69Z" transform="translate(-71.08 -10.91)"/><path class="cls-1" d="M690.35,726.17l-47.28-29a4.58,4.58,0,0,0-4.82,7.8l47.28,29a4.84,4.84,0,0,0,2.41.69,4.75,4.75,0,0,0,3.9-2.18A4.52,4.52,0,0,0,690.35,726.17Z" transform="translate(-71.08 -10.91)"/><path class="cls-1" d="M1006.3,549.23a4.61,4.61,0,0,0-2.3-4l-90.19-51.87V389.26a4.64,4.64,0,0,0-2.3-4l-92.37-53.35a4.64,4.64,0,0,0-4.59,0l-92.38,53.35a4.93,4.93,0,0,0-2.3,4V493.34l-90.19,51.87a4.93,4.93,0,0,0-2.3,4l-.23,106.72a4.62,4.62,0,0,0,2.3,4l92.26,53.59a5.27,5.27,0,0,0,2.29.57,7.41,7.41,0,0,0,2.3-.46L772.54,687l44.3-25.47,90.54,52a4.83,4.83,0,0,0,4.59,0L1004.24,660a4.78,4.78,0,0,0,2.29-4ZM812,603.05l-.11,50.73L724,704.27l-87.68-50.95.23-101.44,87.91-50.49,9.52,5.5,34.31,20,44,25.25Zm-39.13-84.34-43.83-25.36V391.9l87.78-50.72,87.79,50.72V493.34L860.79,518.7l-43.95,25.36ZM909.68,704.26l-87.9-50.49L821.67,603l-.23-50.95,43.94-25.35,43.84-25.36,87.9,50.49.23,101.44Z" transform="translate(-71.08 -10.91)"/><path class="cls-1" d="M724.92,535.8a4.54,4.54,0,0,0,1.49,6.32l47.28,29a4.8,4.8,0,0,0,2.41.68,4.61,4.61,0,0,0,3.9-2.18,4.52,4.52,0,0,0-1.49-6.31l-47.28-29A4.52,4.52,0,0,0,724.92,535.8Z" transform="translate(-71.08 -10.91)"/><path class="cls-1" d="M968.77,566l-47.28-29a4.59,4.59,0,0,0-4.82,7.81l47.28,29a4.57,4.57,0,0,0,6.31-1.49A4.54,4.54,0,0,0,968.77,566Z" transform="translate(-71.08 -10.91)"/><path class="cls-1" d="M1006.3,869.51a4.61,4.61,0,0,0-2.3-4l-90.19-51.87V709.54a4.64,4.64,0,0,0-2.3-4l-92.37-53.35a4.64,4.64,0,0,0-4.59,0l-92.38,53.35a4.94,4.94,0,0,0-2.3,4V813.62l-90.19,51.87a4.93,4.93,0,0,0-2.3,4l-.23,106.72a4.62,4.62,0,0,0,2.3,4l92.26,53.59a5.27,5.27,0,0,0,2.29.57,7.41,7.41,0,0,0,2.3-.46l46.24-26.62,44.3-25.47,90.54,52a4.83,4.83,0,0,0,4.59,0l92.27-53.59a4.78,4.78,0,0,0,2.29-4ZM812,923.33l-.11,50.73L724,1024.55,636.33,973.6l.23-101.44,87.91-50.49,9.52,5.5,34.31,20,44,25.25ZM772.89,839l-43.83-25.36V712.18l87.78-50.72,87.79,50.72V813.62L860.79,839l-43.95,25.36Zm136.79,185.55-87.9-50.49-.11-50.73-.23-50.94L865.39,847l43.83-25.36,87.9,50.49.23,101.44Z" transform="translate(-71.08 -10.91)"/><path class="cls-1" d="M724.92,856.08a4.54,4.54,0,0,0,1.49,6.32l47.28,29a4.8,4.8,0,0,0,2.41.68,4.61,4.61,0,0,0,3.9-2.18,4.52,4.52,0,0,0-1.49-6.31l-47.28-29A4.52,4.52,0,0,0,724.92,856.08Z" transform="translate(-71.08 -10.91)"/><path class="cls-1" d="M968.77,886.26l-47.28-29a4.59,4.59,0,0,0-4.82,7.81l47.28,29a4.84,4.84,0,0,0,2.41.69,4.77,4.77,0,0,0,3.9-2.18A4.54,4.54,0,0,0,968.77,886.26Z" transform="translate(-71.08 -10.91)"/></svg>