<?xml version="1.0" encoding="utf-8"?>
<!-- Generator: Adobe Illustrator 25.4.0, SVG Export Plug-In . SVG Version: 6.00 Build 0)  -->
<svg version="1.1" id="Livello_1" xmlns="http://www.w3.org/2000/svg" xmlns:xlink="http://www.w3.org/1999/xlink" x="0px" y="0px"
	 viewBox="0 0 251.5 251.5" style="enable-background:new 0 0 251.5 251.5;" xml:space="preserve">
<style type="text/css">
	.st0{fill:#FFFFFF;}
</style>
<g>
	<path class="st0" d="M60.1,112.2c-1.7-0.3-3.3-0.8-4.9-1.4v3c1-0.1,1.9-0.1,2.9-0.1c1.4,0,2.8,0.3,4.1,0.6v-1.6
		C61.5,112.5,60.8,112.3,60.1,112.2z M61.6,132.6c0.2-0.1,0.4-0.2,0.6-0.3v-1.5c-1.4,0.7-2.9,1.3-4,2.5c-0.1,0-0.1,0.1-0.2,0.1
		l-2.3,1.7c-0.2,0.1-0.3,0.2-0.5,0.3v2.8c1.8,0.5,3.7,1.1,5.5,1.6h0.1c0.1,0,0.2,0.1,0.3,0.2c0.1,0.1,0.1,0.2,0.1,0.3
		c0,0.1,0,0.2,0,0.3s-0.1,0.2-0.2,0.2c-1.2,0.7-2.9,1.7-3.7,2.3c-0.7,0.5-1.5,1-2.1,1.5v1.4c1.3-1,2.6-2.1,4-3c1-0.6,2-1.1,3-1.5
		v-3.7c-0.3-0.1-0.5-0.1-0.8-0.2c-0.4-0.1-0.8-0.2-1.1-0.3c-0.6-0.4-1-0.9-1.1-1.5c-0.1-0.3,0-0.6,0.2-1
		C59.8,133.9,60.6,133.1,61.6,132.6z M60.6,147.9c-1.8,0.2-3.6,0.3-5.5,0.4v1.2c0.3,0,0.6,0,1,0c0.5,0,1.1-0.1,1.7-0.1
		c-0.1,0.1-0.2,0.2-0.3,0.2c-0.8,0.4-1.5,0.7-2.3,1v1.1c0.8-0.4,1.7-0.8,2.5-1.2c1.5-0.7,2.9-1.2,4.5-1.5v-1.2
		C61.7,147.8,61.1,147.8,60.6,147.9z M192.4,112.1c-0.8,0.1-1.6,0.4-2.3,0.6v1.7c1.4-0.3,2.8-0.6,4.3-0.7c0.9,0,1.8,0,2.7,0.1v-3
		C195.5,111.3,194,111.8,192.4,112.1z M191.6,139.9h0.1c1.8-0.5,3.6-1.1,5.4-1.6v-2.9c-0.1-0.1-0.3-0.1-0.4-0.2l-2.3-1.8
		c-0.1,0-0.1-0.1-0.2-0.1c-1.1-1.2-2.6-1.9-4.1-2.6v1.5c0.2,0.1,0.5,0.3,0.7,0.4c1,0.5,1.9,1.3,2.4,2.3c0.1,0.3,0.2,0.6,0.1,1
		c-0.2,0.6-0.6,1.2-1.1,1.5c-0.4,0.1-0.8,0.2-1.1,0.3c-0.3,0.1-0.7,0.2-1,0.2v3.6c1.1,0.5,2.1,1,3.1,1.6c1.3,0.9,2.6,1.9,3.9,2.9
		v-1.4c-0.7-0.5-1.3-1-2-1.4c-0.8-0.5-2.4-1.5-3.7-2.3c-0.1-0.1-0.2-0.1-0.2-0.2c0-0.1,0-0.2,0-0.3c0-0.1,0.1-0.2,0.2-0.3
		C191.4,140,191.5,140,191.6,139.9z M196.9,160.3c-0.3,0-0.5-0.1-0.8-0.2c-0.2-0.1-0.4-0.3-0.6-0.5l-0.5-0.7
		c-0.9-1.2-1.7-2.5-2.7-3.6c-0.7-0.8-1.5-1.5-2.3-2.1v1.1c0.7,0.6,1.4,1.1,2.1,1.7c0.9,0.8,1.4,2,2,3c0.1,0.3,0.1,0.6,0,0.9h0
		c0,0,0,0,0,0.1c0,0,0,0,0,0.1c0,0,0,0-0.1,0h-0.1c-0.6-0.1-2.4-0.3-3.4-0.3c-0.2,0-0.3,0-0.5,0v2.9l-64,36.9l-63.9-36.9v-2.9
		c-0.1,0-0.2,0-0.4,0c-0.9,0-2.8,0.3-3.4,0.3h-0.1c0,0,0,0-0.1,0c0,0,0,0-0.1-0.1c0,0,0,0,0-0.1c-0.1-0.3-0.1-0.6,0-0.8
		c0.6-1,1.1-2.2,2-3c0.6-0.6,1.3-1.1,2-1.6v-1.1c-0.8,0.6-1.5,1.3-2.2,2c-1.1,1.1-1.8,2.4-2.7,3.6l-0.5,0.7
		c-0.1,0.2-0.3,0.4-0.6,0.5c-0.2,0.1-0.5,0.2-0.8,0.2h-0.3v6.4l70.9,41l71-41v-6.4H196.9z M197.1,149.4v-1.2
		c-1.8-0.1-3.5-0.2-5.3-0.4c-0.6-0.1-1.1-0.1-1.7-0.2v1.2c1.6,0.4,3.1,0.9,4.6,1.6c0.8,0.4,1.6,0.8,2.4,1.1v-1.1
		c-0.7-0.3-1.4-0.7-2.2-1c-0.1-0.1-0.3-0.1-0.3-0.2c0.5,0,1.1,0.1,1.6,0.1C196.5,149.4,196.8,149.4,197.1,149.4z M190.1,123.8v1.6
		c1.1-0.1,2.3-0.2,3.4-0.2c1.2-0.1,2.4-0.2,3.6-0.2v-2.8C194.8,123,192.4,123.6,190.1,123.8z M126.1,43.8l-70.9,41v15.6
		c1.6,0.3,3.1,0.6,4.7,0.9c0.8,0.2,1.6,0.3,2.3,0.5v-13l63.9-36.9l64,36.9v13c0.8-0.2,1.7-0.3,2.5-0.5c1.5-0.3,3-0.6,4.5-0.9V84.8
		L126.1,43.8z M55.2,122.1v2.9c1.2,0.1,2.5,0.1,3.7,0.2c1.1,0.1,2.2,0.1,3.3,0.2v-1.7C59.8,123.5,57.4,122.9,55.2,122.1z"/>
</g>
<path class="st0" d="M236.8,124.4c-0.1-1.4-0.4-2.7-0.7-4.1c-0.2-0.7-0.5-1.4-0.8-2.1c-1-2.2-2.2-4.2-3.7-6.1
	c-1.3-1.8-3-3.5-4.8-4.9c-0.6-0.5-1.2-1-1.8-1.6c-0.5-0.4-0.9-0.8-1.4-1.2c-0.8-0.6-1.6-1.3-2.3-1.9c-1.2-1-2.6-1.9-4.1-2.5
	c-0.9-0.4-1.8-0.8-2.7-1.2c-1.2-0.4-2.5-0.8-3.9-0.9c-2.4-0.2-4.8-0.4-7.2,0.2c-1.5,0.4-3.2,0.3-4.8,0.5c-0.5,0-1.1,0.1-1.6,0.1
	c-2.1,0.2-4.2,0.4-6.3,0.7c-0.2,0-0.5,0.1-0.7,0.1c-2.3,0.4-4.6,0.7-6.8,1c-1.3,0.2-2.6,0.5-3.9,0.8c-1.9,0.3-3.8,0.6-5.7,0.9
	c-0.7,0.1-1.4,0.1-2,0c-0.5,0-0.9,0-1.3-0.1c-5-0.1-9.9-0.3-14.9-0.5c-2,0-3.9,0.1-5.9,0.5c-0.4,0.1-0.8,0.2-1.2,0.4
	c-0.5,0.1-0.9,0.3-1.5,0.5c0.2-1.6,0.3-3.1,0.5-4.7c0-0.1,0.1-0.2,0.1-0.3c0.1-0.1,0.2-0.2,0.3-0.2c0.3-0.2,0.5-0.3,0.8-0.4
	c1.3-0.4,2.5-0.8,3.8-1.2c0.9-0.3,1.7-0.6,2.5-1.1c0.6-0.4,1.1-0.8,1.6-1.2c0-0.1,0.1-0.1,0.1-0.2c0-0.1,0-0.1,0-0.2
	c0-0.1-0.2-0.1-0.4-0.1c-0.2,0-0.3,0.1-0.5,0.2c-1.9,0.8-3.9,1.4-5.9,1.8c-0.9,0.2-1.7,0.4-2.6,0.7c-0.3,0.1-1.9,0.7-2.1,0.8
	c-0.8,0.6-1.4,1.3-1.9,2c-0.5,0.7-1,1.5-1.5,2.2c-0.2,0.2-0.3,0.5-0.5,0.7c-0.5-0.3-0.9-0.5-1.3-0.8c-0.1-0.1-0.2-0.2-0.3-0.3
	c-0.1-0.1-0.2-0.2-0.2-0.4c-0.3-0.9-0.7-1.8-1-2.7c-0.2-0.8-0.6-1.5-1.1-2.1c-0.5-0.6-1.1-1.1-1.9-1.5c-0.4-0.2-0.8-0.5-1.1-0.8
	c-0.1-0.1-0.2-0.2-0.2-0.3c-0.1-0.6-0.2-1.2-0.2-1.8c0-1,0.3-2.2,1.2-2.9c2.6-1.9,5.9-1.8,6.9-2.1c0.3-0.1,0.8-0.3,0.7-0.6
	c0-0.1,0-0.1-0.1-0.2c0,0-0.1-0.1-0.1-0.1c-1-0.4-4.3,0.4-4.9,0.5c-1.4,0.2-2.7,0.9-3.7,1.9c-0.4,0.4-0.8,0.8-1.1,1.3
	c-0.3,0.6-0.5,1.2-0.7,1.8c-0.1,0.3-0.3,0.5-0.6,0.6c-0.3,0.1-0.6,0.2-0.9,0.1c-0.6-0.2-1.2-0.3-1.8-0.4c-0.8,0-1.6-0.1-2.5-0.1
	c-0.8,0-1.7,0.1-2.5,0.1c-0.6,0.1-1.2,0.2-1.8,0.4c-0.3,0-0.6,0-0.9-0.1c-0.3-0.1-0.5-0.4-0.6-0.6c-0.2-0.6-0.5-1.2-0.7-1.8
	c-0.3-0.5-0.6-0.9-1.1-1.3c-1-1-2.3-1.7-3.7-1.9c-0.6-0.1-3.9-0.9-4.9-0.5c-0.1,0-0.1,0.1-0.2,0.1c0,0-0.1,0.1-0.1,0.2
	c0,0.3,0.4,0.5,0.7,0.6c1,0.3,4.3,0.2,6.9,2.1c0.9,0.7,1.2,1.8,1.2,2.9c0,0.6-0.1,1.2-0.2,1.8c0,0.1-0.1,0.2-0.2,0.3
	c-0.3,0.3-0.7,0.6-1.1,0.8c-0.7,0.4-1.4,0.9-1.9,1.5c-0.5,0.6-0.9,1.3-1.1,2.1c-0.3,0.9-0.7,1.8-1,2.7c0,0.1-0.1,0.2-0.2,0.4
	c-0.1,0.1-0.2,0.2-0.3,0.2c-0.4,0.2-0.9,0.5-1.3,0.8c-0.2-0.2-0.3-0.4-0.5-0.7c-0.5-0.7-1-1.5-1.5-2.2c-0.5-0.8-1.2-1.4-1.9-2
	c-0.3-0.2-1.8-0.7-2.1-0.8c-0.8-0.3-1.7-0.5-2.6-0.7c-2-0.4-4-1-5.9-1.8c-0.2-0.1-0.3-0.1-0.5-0.2c-0.1,0-0.3,0.1-0.4,0.1
	c0,0.1,0,0.1,0,0.2c0,0.1,0,0.1,0.1,0.2c0.5,0.4,1,0.8,1.6,1.2c0.8,0.5,1.6,0.9,2.5,1.1c1.3,0.4,2.5,0.8,3.8,1.2
	c0.3,0.1,0.6,0.2,0.8,0.4c0.1,0.1,0.2,0.1,0.3,0.2c0.1,0.1,0.1,0.2,0.1,0.3c0.2,1.6,0.3,3.1,0.5,4.7c-0.6-0.2-1-0.4-1.5-0.5
	c-0.4-0.2-0.8-0.3-1.2-0.4c-1.9-0.4-3.9-0.5-5.9-0.5c-5,0.2-9.9,0.3-14.9,0.4c-0.5,0-0.9,0.1-1.3,0.1c-0.7,0-1.4,0-2.1,0
	c-1.9-0.3-3.8-0.5-5.7-0.9c-1.3-0.2-2.6-0.5-3.9-0.7c-2.4-0.4-4.8-0.6-7.1-1.1c-0.1,0-0.2,0-0.4-0.1c-2.2-0.4-4.4-0.6-6.6-0.8
	c-0.4-0.1-0.9-0.1-1.3-0.1c-1.6-0.2-3.2-0.1-4.8-0.5c-2.4-0.6-4.8-0.4-7.2-0.2c-1.3,0.2-2.6,0.5-3.9,0.9c-0.9,0.3-1.8,0.7-2.7,1.2
	c-1.5,0.7-2.9,1.5-4.2,2.5c-0.8,0.6-1.6,1.3-2.3,1.9c-0.5,0.4-0.9,0.8-1.4,1.2c-0.6,0.5-1.2,1.1-1.8,1.6c-1.8,1.4-3.4,3.1-4.8,4.9
	c-1.5,1.9-2.7,3.9-3.7,6.1c-0.3,0.7-0.6,1.3-0.8,2.1c-0.3,1.4-0.5,2.7-0.7,4.1c-0.2,1.7,0,3.5,0.6,5.1c0.5,1,1.1,2,1.8,3
	c0.4,0.6,0.9,1.1,1.6,1.5c0.2,0.1,0.4,0.2,0.6,0.3c0.8,0.6,1.7,1.1,2.7,1.4c0.3,0.1,0.6,0.2,0.8,0.3c1.5,0.7,3.2,1.2,4.8,1.7
	c0.5,0.1,0.9,0.2,1.4,0.3c2,0.2,4.1,0.3,6.1,0.5c0.3,0,0.5,0,0.8,0c0.4,0,0.7,0,1.1-0.1c0.6-0.1,1.2-0.1,1.8-0.2
	c0.9-0.2,1.8-0.4,2.7-0.6c0.2-0.1,0.4,0,0.6,0c0.2,0.1,0.4,0.2,0.5,0.3c0.3,0.3,0,0.6-0.1,0.9c-0.1,0.2-0.2,0.3-0.3,0.4
	c-0.3,0.4-0.7,0.8-1.1,1.2c-1.2,1.2-2.4,2.4-2.9,4c-0.1,0.5-0.4,0.9-0.5,1.3c-0.8,2-1.6,3.9-1.4,6c0.1,1.3,0.5,2.5,1.2,3.6
	c0.4,0.5,0.7,1,1,1.5c0.4,0.9,1.1,1.7,2,2.2c0.9,0.6,2,1.1,3,1.5c2.9,0.9,5.9,1.3,8.9,1c0.5,0,1-0.1,1.5-0.1c0.4,0,0.8,0,1.1-0.1
	c0.8-0.1,1.6-0.2,2.3-0.3c1-0.1,1.9-0.3,2.9-0.4c0.2,0,0.4,0,0.6-0.1c1.4-0.2,2.9-0.2,4.3-0.4c0.8-0.1,1.6-0.1,2.4-0.1
	c2.4,0,4.8-0.2,7.2-0.6c1.4-0.2,2.7-0.5,4-1c2.5-0.9,4.9-2,7.2-3.2c0.8-0.4,1.4-0.9,2-1.6c0.7-0.7,1.4-1.4,2-2.1
	c0.8-0.8,1.6-1.7,2.4-2.6l0.3-0.4c0.1,0.5,0.2,1,0.4,1.5c0.1,0.4,0.2,0.8,0.2,1.2c0,2.1,0.7,4,1.4,5.9c0.2,0.3,0.2,0.5,0.2,0.8
	c0,0.3-0.2,0.5-0.4,0.8c-0.9,1-1.7,2.2-2.9,2.9c-0.1,0-0.2,0.2-0.2,0.3c0,0.1,0,0.3,0.1,0.3c0.3,0.2,0.7,0.3,1.1,0.3
	c0.4,0,0.8-0.2,1.2-0.4c1.2-0.7,2.3-1.6,3.2-2.7c0.2-0.2,0.4-0.5,0.4-0.8c0.1-0.3,0-0.6-0.1-0.9c-0.4-0.9-1.9-2.4-1.8-5.9
	c-0.1-0.8-0.1-1.7,0-2.5c0.1-1.5,0.9-3,2.1-4c0.1-0.1,0.2-0.2,0.3-0.2c0.1,0,0.3,0,0.4,0c0.1,0,0.2,0.1,0.3,0.2
	c0.1,0.1,0.1,0.2,0.1,0.3c0.3,1.3,0.7,2.5,1.3,3.7c0.8,2.2,2.1,4.2,3.7,6c0.8,0.8,1.6,1.6,2.5,2.4c0.4,0.4,0.8,0.8,1.3,1.1
	c1.5,1.1,2.9,2.1,4.4,3.1c0.6,0.4,1.3,0.8,2,1.1c1.7,0.8,3.4,1.4,5.2,1.9c0.7,0.2,1.5,0.3,2.2,0.4c0.2,0.1,0.4,0.2,0.7,0.1l0.3,0
	c0.9,0.1,1.7,0.1,2.6,0.1c0.8,0,1.8-0.1,2.7-0.1l0.4,0c0.1,0,0.2,0,0.4,0c0.1,0,0.2-0.1,0.3-0.2c0.7-0.1,1.4-0.2,2-0.4
	c1.8-0.5,3.5-1.1,5.2-1.9c0.7-0.3,1.4-0.7,2-1.1c1.5-1,3-2,4.4-3.1c0.5-0.3,0.9-0.7,1.3-1.1c0.8-0.8,1.7-1.5,2.5-2.4
	c1.6-1.8,2.9-3.8,3.7-6c0.5-1.2,1-2.5,1.3-3.7c0-0.1,0-0.2,0.1-0.3c0.1-0.1,0.2-0.2,0.3-0.2c0.1,0,0.3,0,0.4,0
	c0.1,0,0.2,0.1,0.3,0.2c1.2,1,2,2.5,2.1,4c0.1,0.8,0.1,1.7,0,2.5c0,3.5-1.4,5-1.8,5.9c-0.1,0.3-0.2,0.6-0.1,0.9
	c0.1,0.3,0.2,0.6,0.4,0.8c0.9,1.1,2,2,3.2,2.7c0.4,0.2,0.8,0.4,1.2,0.4c0.4,0,0.7-0.1,1.1-0.3c0.1,0,0.1-0.2,0.1-0.3
	c0-0.1-0.1-0.2-0.2-0.3c-1.3-0.7-2-1.9-2.9-2.9c-0.2-0.2-0.3-0.5-0.4-0.8c0-0.3,0-0.6,0.2-0.8c0.7-1.9,1.4-3.8,1.4-5.9
	c0-0.4,0.1-0.8,0.2-1.2c0.1-0.5,0.2-1,0.4-1.5l0.3,0.4c0.8,0.9,1.6,1.7,2.4,2.6c0.7,0.7,1.4,1.4,2,2.1c0.6,0.6,1.3,1.1,2,1.6
	c2.3,1.2,4.8,2.3,7.2,3.2c1.3,0.4,2.6,0.7,4,1c2.4,0.5,4.8,0.7,7.2,0.6c0.8,0,1.6,0.1,2.4,0.1c1.4,0.1,2.7,0.2,4.1,0.3
	c0.3,0,0.5,0.1,0.8,0.1c1,0.1,1.9,0.3,2.9,0.4c0.8,0.1,1.5,0.2,2.3,0.3c0.3,0,0.6,0,1,0.1c0.6,0,1.2,0.1,1.7,0.1
	c3,0.3,6.1-0.1,8.9-1c1.1-0.4,2.1-0.9,3-1.5c0.9-0.6,1.6-1.4,2-2.3c0.3-0.5,0.6-1,1-1.5c0.7-1.1,1.1-2.3,1.2-3.6
	c0.2-2.1-0.6-4.1-1.4-6c-0.2-0.5-0.4-0.9-0.5-1.3c-0.5-1.6-1.7-2.8-2.9-4c-0.4-0.4-0.7-0.7-1.1-1.1c-0.1-0.1-0.2-0.3-0.3-0.4
	c-0.1-0.3-0.4-0.6-0.1-0.9c0.1-0.2,0.3-0.3,0.5-0.3c0.2-0.1,0.4-0.1,0.6,0c0.9,0.2,1.8,0.4,2.7,0.6c0.6,0.1,1.2,0.1,1.8,0.2
	c0.4,0,0.7,0,1.1,0.1c0.3,0,0.6,0,0.8,0c2-0.1,4.1-0.3,6.1-0.5c0.5,0,1-0.1,1.4-0.3c1.6-0.4,3.2-1,4.8-1.6c0.3-0.1,0.5-0.2,0.8-0.3
	c1-0.3,1.9-0.8,2.7-1.4c0.2-0.1,0.4-0.2,0.6-0.3c0.7-0.3,1.2-0.9,1.6-1.5c0.7-0.9,1.3-1.9,1.8-3C236.8,127.8,237,126.1,236.8,124.4z
	 M225.9,111.2c0.7,0.7,1.5,1.2,2.5,1.7c0.9,1,1.6,2.1,2.4,3.2c0.3,0.5,0.7,1,1,1.5c0,0.1,0.1,0.2,0,0.2c0,0.1-0.1,0.1-0.1,0.2
	c-0.1,0.1-0.2,0.1-0.2,0.1c-0.1,0-0.2,0-0.2,0c-0.6-0.4-1.3-0.7-2-0.9c-3.7-1.3-7.6-1.6-11.6-1.5c-2.9,0.1-5.9,0.6-8.7,1.5
	c-0.1,0-0.2,0-0.4,0c-0.1,0-0.2-0.1-0.3-0.1c-0.1-0.1-0.2-0.1-0.3-0.2c-0.1-0.1-0.1-0.2-0.2-0.3c0-0.1,0-0.1-0.1-0.2
	c-0.2-0.5-0.5-1-1-1.4c-0.4-0.4-1-0.6-1.6-0.8c-1.4-0.3-4.1-1.1-5.3-1.4c0,0-0.1,0-0.1-0.1c0,0,0-0.1,0-0.1c0,0,0-0.1,0-0.1
	c0,0,0.1,0,0.1-0.1c3.3-0.9,6.7-1.8,9.9-2.7c2.3-0.6,4.6-1.2,7-1.6c1.8-0.4,3.6-0.2,5.3,0.4C223.6,109.2,224.9,110.1,225.9,111.2z
	 M190.1,137.9c-2.4,0.5-4.7,1.1-7.1,1.6c-0.3,0.1-0.5,0.1-0.8,0.1c-1.5,0-3,0-4.5,0.1h-0.2c-1.2-0.2-2.4-0.8-3.3-1.6
	c-0.3-0.3-0.6-0.7-0.8-1c-1.4-3-3-5.8-5.8-8c-2.1-1.6-4.1-3.2-6.5-4.4c0,0-0.1-0.1-0.2-0.2c1.8,0.4,3.5,0.8,5.2,1.1
	c3,0.6,6.1,1,9.1,1.8c3.3,0.8,6.5,2,9.8,2.9c1.8,0.5,3.5,1.2,5.1,2c0.2,0.1,0.5,0.3,0.7,0.4c1,0.5,1.9,1.3,2.4,2.3
	c0.1,0.3,0.2,0.6,0.1,1c-0.2,0.6-0.6,1.2-1.1,1.5c-0.4,0.1-0.8,0.2-1.1,0.3C190.7,137.8,190.4,137.8,190.1,137.9z M193.2,143.1
	c1.3,0.9,2.6,1.9,3.9,2.9c0.2,0.2,0.5,0.4,0.7,0.6c0.3,0.3,0.6,0.7,0.8,1c0.2,0.5,0,0.8-0.6,0.7c-0.3,0-0.6,0-0.9-0.1
	c-1.8-0.1-3.5-0.2-5.3-0.4c-0.6-0.1-1.1-0.1-1.7-0.2c-2-0.2-3.9-0.4-5.8-0.6c-0.2,0-0.4-0.1-0.6-0.3c-0.7-0.8-1.4-1.7-2.1-2.5
	c-0.3-0.4-0.6-0.8-0.9-1.1c-0.3-0.3-0.4-0.5-0.1-0.8c0.1-0.1,0.4-0.4,0.6-0.6c0.5,0,1,0,1.5,0c0.2,0,0.4-0.1,0.6-0.1l2-0.2
	c0.3,0,0.6,0,1-0.1l0.3-0.1h2.4c0.2,0,0.3,0,0.5,0.1c0.2,0.1,0.4,0.2,0.6,0.3C191.1,142,192.2,142.5,193.2,143.1z M167.4,123.5
	c-1.2-0.3-2.5-0.5-3.8-0.7c-1.9-0.2-3.7-0.6-5.5-1.2c-1.1-0.4-2.2-0.7-3.4-0.8c-3.1-0.5-6.2-1.2-9.1-2.2l-0.4-0.8
	c0.3-0.2,0.5-0.3,0.8-0.5c0.7-0.4,1.4-0.7,2.2-1.1c0.1-0.1,0.2-0.1,0.4-0.2c0.9-0.2,1.8-0.3,2.6-0.4c2.5-0.1,4.9-0.2,7.4-0.2
	c2.3,0,4.7,0.2,7,0.2c2.7,0.1,5.4,0.1,8.1,0.1c4.9,0.1,9.8-0.2,14.6-1c0.6-0.1,1.2-0.2,1.8-0.3c1.4-0.3,2.8-0.6,4.3-0.7
	c0.9,0,1.8,0,2.7,0.1c1.9,0.1,3.8,0.5,5.7,1l2.2,0.7c0.4,0.1,0.7,0.3,1,0.6c0.3,0.3,0.4,0.6,0.5,1c0.1,0.9-0.6,1.1-1.2,1.4
	c-1.2,0.6-2.3,1.2-3.5,1.8c-1,0.5-2,0.9-3.1,1.4c-0.5,0.2-1,0.4-1.5,0.6c-2.3,0.8-4.6,1.3-7,1.6c-0.5,0.1-0.9,0.1-1.4,0.1
	c-3.7,0.4-7.5,0.5-11.2,0.4c-1.6-0.1-3.3-0.3-4.9-0.3C170.8,124.1,169.1,124,167.4,123.5z M212.3,102.3L212.3,102.3
	c0-0.5,0.1-0.9,0-1.4c0-0.1,0-0.2,0.1-0.3c0-0.1,0.1-0.2,0.2-0.2c0.1-0.1,0.2-0.1,0.3-0.1c0.1,0,0.2,0,0.3,0
	c0.3,0.1,0.6,0.2,0.8,0.4c2,1.1,4,2,5.7,3.5c0,0,0.1,0.1,0.2,0.1c0.5,0.4,1.5,1.2,2.3,1.8c0,0,0.1,0.1,0.1,0.2c0,0.1,0,0.1,0,0.2
	c0,0-0.1,0.1-0.1,0.1c-0.1,0-0.1,0-0.2,0c-2.3-0.6-4.8-0.7-7.2-0.1c-2.8,0.7-5.5,1.4-8.3,2.1c-0.2,0-0.4,0.1-0.5,0.1
	c1.4-1,2.8-2,4.3-2.9C211.4,105,211.9,103.7,212.3,102.3z M182.8,104L182.8,104c0.1-0.1,0.1-0.2,0.2-0.3c0.1-0.1,0.2-0.2,0.3-0.3
	c0.1-0.1,0.2-0.2,0.4-0.2c0.6-0.2,1.3-0.4,1.9-0.5c1.5-0.3,3-0.6,4.4-0.9c0.8-0.2,1.7-0.3,2.5-0.5c1.5-0.3,3-0.6,4.5-0.9
	c0.1,0,0.3,0,0.4-0.1c2-0.3,4-0.2,6-0.5c0.7-0.2,1.4-0.3,2.1-0.3c1.1,0,2.1-0.1,3.2-0.1c0.4,0,0.7,0.1,0.9,0.3
	c0.3,0.2,0.4,0.5,0.5,0.8v0.1c0,2.1-1.1,3.5-3,4.7c-2.7,1.7-5.3,3.4-8.2,4.6c-0.7,0.3-1.3,0.6-2,0.8c-1.5,0.6-3.1,1-4.7,1.3
	c-0.8,0.1-1.6,0.4-2.3,0.6c-0.5,0.1-1.1,0.3-1.6,0.4c-4.3,0.7-8.7,1-13,1c-2.6,0-5.2-0.2-8-0.4c1.6-0.5,3-1,4.4-1.5
	c3-1,5.9-2.5,8.2-4.6C181.2,106.7,181.9,105.3,182.8,104z M148.9,105L148.9,105c1.5-0.5,3-0.7,4.6-0.8c2.2,0,4.4,0,6.6-0.1
	c2.2-0.1,4.4-0.4,6.6-0.1c2.6,0.3,5.1,0.1,7.7-0.1c0.6,0,1.2-0.1,1.9-0.1c1-0.1,2.1-0.1,3.1-0.1c0.2,0,0.4,0.1,0.6,0.2
	c0.2,0.1,0.3,0.2,0.4,0.4c0.1,0.2,0.1,0.4,0.1,0.5c0,0.2-0.1,0.4-0.2,0.5c-0.8,1-1.8,1.9-3,2.5c-2,1.2-4.2,2.3-6.4,3.2
	c-3.1,1.2-6.3,2-9.6,2.5c-0.7,0.1-1.4,0-2,0c-2.1,0.1-4.2,0.3-6.3,0.5c-1.7,0.1-3.3,0.4-4.9,0.6c-1,0.2-2,0.4-2.9,0.7
	c-0.3,0.1-0.7,0.1-1,0.1c-0.1-0.3-0.3-0.6-0.4-0.9c0.1-0.1,0.1-0.3,0.1-0.4c0-0.2-0.1-0.3-0.2-0.4c0.1-0.4,0.2-0.8,0.2-1.2
	c0-0.8,0.1-1.6,0.1-2.4c0-0.6,0.1-1.1,0.2-1.7c0.1-0.4,0.2-0.8,0.4-1.2c0.2-0.4,0.5-0.7,0.9-0.9c0.3-0.2,0.7-0.4,1-0.6
	C147.2,105.5,148,105.3,148.9,105z M142.1,103.1c1-1.7,2.1-3.4,3.3-5c0,0,0.5-0.1,0.4,0.3c-0.1,0.5-0.3,0.9-0.5,1.4
	c-0.3,1.1-0.9,2.1-1,3.3c0,0.2-0.1,0.3-0.2,0.4c-0.5,0.4-1.1,0.8-1.6,1.2c-0.2-0.4-0.4-0.8-0.5-1.1
	C142,103.5,142.1,103.3,142.1,103.1z M134.4,96.9L134.4,96.9c0.1,0.5,0.2,1,0.2,1.4c0.1,0.6,0.1,1.1,0.1,1.7
	c-0.2-0.8-0.3-1.6-0.4-2.5c-0.1-0.3-0.1-0.5-0.1-0.8L134.4,96.9z M129.7,94.7l0.3,0.2c-0.1,0.1-0.2,0.3-0.2,0.4v0c0,0.2,0,0.5,0,0.8
	c-0.1-0.4-0.1-0.7-0.2-1c0-0.1,0-0.2,0-0.2C129.6,94.8,129.7,94.7,129.7,94.7z M122.8,94.6c0.2,0.2,0.1,0.4,0,0.9
	c0,0.2,0,0.3-0.1,0.5c-0.1-0.2-0.1-0.4-0.1-0.6c0-0.1,0-0.2-0.1-0.3c-0.1-0.1-0.1-0.2-0.2-0.3L122.8,94.6z M118,97.1
	c0-0.1,0-0.1,0-0.2l0.2-0.1v0.1c-0.2,1.1-0.4,2.2-0.5,3.2C117.8,99.1,117.9,98.1,118,97.1z M117,100.1L117,100.1L117,100.1
	L117,100.1z M116.3,98.4c-0.1,0.2-0.1,0.5-0.2,0.6C116.1,98.8,116.2,98.6,116.3,98.4z M110.8,117.6c0.1-0.1,0.1-0.1,0.2-0.2
	c0.1-0.2,0.3-0.3,0.5-0.4c0.2-0.1,0.4-0.1,0.6-0.1c0.1,0,0.2,0,0.2,0c0.4,0,0.8,0,0.9-0.5c0,0,0.2-0.1,0.2-0.1l1.4,0.1
	c0.3-0.5,0.9-0.1,1.3-0.4c0.1-0.1,0.3-0.2,0.4-0.3c0.1-0.1,0.2-0.2,0.4-0.4c0.1,0.5,0.2,1,0.8,1.1c0.3,0,0.5,0,0.8-0.1
	s0.4-0.3,0.5-0.5c0.4,0.2,0.7,0.5,1.1,0.5c0.3,0,0.7-0.3,1.1-0.5c0,0,0.1,0.1,0.1,0.2c0.4,0.6,0.8,0.7,1.4,0.3
	c0.1-0.1,0.2-0.1,0.4-0.1c0.1,0,0.3,0,0.5,0c0.2,0,0.3-0.1,0.4-0.2c0.1-0.1,0.2-0.2,0.3-0.2c0.2-0.1,0.5-0.2,0.8-0.3
	c0.4,1.1,0.4,1.2,1.2,1.2c0.8,0,0.8-0.1,1.2-1.2c0.4,0.4,1,0.4,1.4,0.8c0.1,0.1,0.3,0,0.5,0.1c0.2,0,0.3,0,0.5,0.1
	c0.1,0.1,0.2,0.2,0.3,0.2c0.1,0,0.3,0,0.4,0c0.1,0,0.2-0.1,0.3-0.2c0.1-0.1,0.2-0.2,0.2-0.3c0.1-0.1,0.1-0.2,0.2-0.4
	c0.3,0.4,0.6,0.7,1,0.6c0.4-0.1,0.7-0.3,1.1-0.5c0.1,0.2,0.2,0.4,0.5,0.5c0.2,0.1,0.5,0.2,0.7,0.2c0.7-0.1,0.8-0.6,0.9-1.1
	c0.2,0.2,0.4,0.4,0.6,0.5c0.6,0.2,1.2,0.4,1.9,0.5c0.4,0,0.8,0,1.1-0.2c0,0.6,0.5,0.6,1,0.6c0.3,0,0.5,0,0.8,0.1
	c0.2,0.1,0.4,0.3,0.6,0.5c0.1,0.1,0.2,0.2,0.3,0.2c0.2,0,0.3,0,0.4,0c0.1,0.3,0.2,0.5,0.3,0.8c0,0.1,0.1,0.2,0.1,0.2
	c0.1,0.1,0.1,0.1,0.2,0.2c0.1,0,0.2,0,0.3,0c0.1,0,0.2,0,0.3-0.1c0.5,1.2,1.1,2.4,1.6,3.6c0.3,0.8,0.7,1.7,1,2.5c-0.2,0-0.3,0-0.5,0
	c-0.2,0-0.3,0.1-0.4,0.2c-0.1,0.1-0.2,0.2-0.3,0.3c-0.1,0.1-0.1,0.3-0.1,0.4c0,0.3,0,0.6,0,0.9c0,0,0,0,0,0h0c0,0,0,0,0,0
	c-0.3-0.3-0.4-0.7-0.6-1.1c-0.1-0.2-0.2-0.3-0.4-0.4c-0.2-0.1-0.4-0.1-0.6-0.1c-0.2,0-0.4,0.1-0.6,0.2c-0.2,0.1-0.3,0.3-0.3,0.5
	c-0.1,0.3-0.1,0.5-0.1,0.8c-0.9-0.6-1.3-0.5-1.9,0.3c-0.1,0.1-0.1,0.1-0.2,0.2c-0.1,0-0.2,0-0.2,0c-0.1,0-0.3-0.2-0.3-0.3
	s-0.2-0.4-0.2-0.6c-0.1-0.2-0.2-0.4-0.4-0.5c-0.2-0.1-0.5-0.2-0.7-0.1c-0.2,0-0.5,0.2-0.6,0.4c-0.1,0.2-0.2,0.4-0.2,0.6
	c0,0.3,0.1,0.6,0.1,1c0,0.1,0,0.3-0.1,0.4c-0.1,0-0.2-0.1-0.4-0.2c-0.1-0.1-0.2-0.1-0.3-0.2c-0.1,0-0.2-0.1-0.3-0.1s-0.2,0-0.3,0
	c-0.1,0-0.2,0.1-0.3,0.2c-0.1,0.1-0.2,0.2-0.4,0.2c-0.4,0.5-1.2,0.1-1.5,0.7c0,0-0.1,0-0.2,0c-0.1,0-0.3,0-0.4,0.1
	c-0.2,0.1-0.4,0.1-0.5-0.2c-0.1-0.2-0.2-0.3-0.3-0.4c-0.2-0.1-0.4-0.1-0.5,0c-0.2,0-0.3,0.1-0.4,0.3c-0.1,0.1-0.2,0.3-0.2,0.5v1.3
	c-0.5-0.1-0.6-0.4-0.6-0.8c0-0.5-0.2-0.9-0.7-0.9c-0.5-0.1-1.1-0.3-1.6,0c-0.1,0-0.2,0.1-0.3,0.1c-0.6,0.1-0.9,0.3-0.9,0.9
	c0,0.2,0,0.4,0,0.7c0,0.2-0.1,0.4-0.4,0.3c-0.2,0-0.5,0-0.7,0c-0.4,0.1-0.5,0-0.5-0.3c0-0.2,0-0.5,0-0.7c0-0.1,0-0.2,0-0.3
	c0-0.1-0.1-0.2-0.2-0.3c-0.1-0.1-0.2-0.1-0.3-0.2c-0.1,0-0.2-0.1-0.3-0.1c-0.2,0-0.4-0.1-0.5-0.1c-0.2-0.1-0.4-0.1-0.7-0.1
	c-0.2,0-0.5,0.1-0.7,0.2c-0.2,0.1-0.4,0.3-0.5,0.4c-0.1,0.2-0.2,0.4-0.2,0.6c-0.1,0.4-0.2,0.6-0.6,0.7v-0.8c0-0.3,0-0.5-0.1-0.8
	c-0.1-0.5-0.8-0.7-1.1-0.3c-0.1,0.2-0.3,0.3-0.5,0.4c-0.2,0.1-0.4,0.1-0.6,0c-0.2-0.1-0.4,0-0.5-0.2c-0.1-0.1-0.3-0.2-0.4-0.2
	c-0.5,0.2-0.8-0.2-1.2-0.4c-0.6-0.4-0.8-0.4-1.3,0.1c-0.1,0-0.2,0.1-0.3,0.1c-0.1-0.1-0.1-0.2-0.1-0.3c0-0.4,0.1-0.8,0.1-1.1
	c0-0.2-0.1-0.4-0.2-0.6c-0.1-0.2-0.3-0.3-0.6-0.3c-0.2,0-0.5,0-0.7,0.1c-0.2,0.1-0.4,0.3-0.4,0.5c-0.1,0.2-0.2,0.5-0.3,0.8
	c0,0.1-0.1,0.1-0.1,0.1c-0.1,0-0.1,0.1-0.2,0.1c-0.1,0-0.2,0-0.2,0c-0.1,0-0.1-0.1-0.2-0.1c0-0.1-0.1-0.2-0.1-0.3
	c-0.1-0.1-0.2-0.2-0.3-0.3c-0.1-0.1-0.2-0.2-0.4-0.2c-0.1,0-0.3,0-0.4,0c-0.2,0-0.3,0.1-0.4,0.2c-0.1,0.1-0.2,0.1-0.3,0.2
	c0-0.3,0-0.6-0.1-0.8c0-0.2-0.1-0.3-0.3-0.5c-0.1-0.1-0.3-0.2-0.5-0.2c-0.2,0-0.4,0-0.6,0.1c-0.2,0.1-0.3,0.2-0.4,0.4
	c-0.1,0.2-0.2,0.4-0.3,0.6l-0.3,0.6c0-0.5-0.1-0.9-0.2-1.4c0-0.2-0.1-0.3-0.3-0.4c-0.1-0.1-0.3-0.2-0.5-0.2c-0.2,0-0.3,0-0.5,0.1
	c-0.2,0.1-0.3,0.2-0.4,0.3l0,0c0.4-1,0.7-1.9,1.1-2.9c0.5-1.2,1-2.4,1.6-3.6c0.1,0,0.2,0.1,0.3,0.1c0.1,0,0.2,0,0.3,0
	c0.1,0,0.2-0.1,0.2-0.1c0.1-0.1,0.1-0.1,0.1-0.2c0.1-0.3,0.2-0.5,0.3-0.8c0.1,0,0.2,0.1,0.3,0.1c0.1,0,0.2,0,0.3,0
	C110.7,117.7,110.8,117.6,110.8,117.6z M70.3,139.6L70.3,139.6c-0.3,0-0.5-0.1-0.8-0.1c-2.4-0.5-4.9-1.1-7.3-1.6
	c-0.3-0.1-0.5-0.1-0.8-0.2c-0.4-0.1-0.8-0.2-1.1-0.3c-0.6-0.4-1-0.9-1.1-1.5c-0.1-0.3,0-0.6,0.2-1c0.5-1,1.3-1.8,2.3-2.3
	c0.2-0.1,0.4-0.2,0.6-0.3c1.7-0.9,3.4-1.6,5.2-2.1c3.3-0.9,6.5-2.1,9.8-2.9c3-0.8,6.1-1.2,9.1-1.8c1.7-0.3,3.4-0.7,5.2-1.1
	c-0.2,0.2-0.2,0.2-0.2,0.2c-2.4,1.2-4.4,2.8-6.5,4.4c-2.8,2.2-4.4,5-5.8,8c-0.2,0.4-0.5,0.7-0.8,1c-0.9,0.8-2,1.3-3.3,1.6h-0.2
	C73.2,139.6,71.7,139.6,70.3,139.6z M71.8,143.2c-0.3,0.4-0.6,0.7-1,1.1c-0.7,0.8-1.4,1.7-2.1,2.5c-0.2,0.2-0.4,0.2-0.6,0.3
	c-2,0.2-4,0.4-6,0.6c-0.5,0.1-1,0.1-1.5,0.2c-1.8,0.2-3.6,0.3-5.5,0.4c-0.3,0-0.5,0-0.8,0c-0.5,0-0.8-0.3-0.6-0.7
	c0.2-0.4,0.5-0.7,0.8-1c0.2-0.1,0.4-0.3,0.5-0.4c1.3-1,2.6-2.1,4-3c1-0.6,2-1.1,3-1.5c0.2-0.1,0.5-0.2,0.8-0.3
	c0.2-0.1,0.3-0.1,0.5-0.1h2.4l0.3,0.1c0.3,0,0.6,0.1,1,0.1l2,0.2c0.2,0,0.4,0.1,0.6,0.1c0.5,0,1,0,1.5,0c0.2,0.3,0.5,0.5,0.6,0.7
	C72.2,142.7,72.1,142.9,71.8,143.2z M88.8,122.8c-1.3,0.2-2.6,0.4-3.8,0.7c-1.7,0.4-3.4,0.6-5.2,0.5c-1.6,0-3.3,0.2-4.9,0.2
	c-3.7,0.1-7.5,0-11.2-0.4c-0.5,0-1-0.1-1.6-0.2c-2.4-0.3-4.7-0.9-7-1.7c-0.5-0.2-0.9-0.3-1.3-0.5c-1-0.4-2-0.9-3.1-1.3
	c-1.2-0.6-2.3-1.2-3.5-1.8c-0.6-0.3-1.3-0.5-1.2-1.4c0.1-0.4,0.2-0.7,0.5-1c0.3-0.3,0.6-0.5,1-0.6l2.2-0.7c1.8-0.5,3.6-0.9,5.5-1
	c1-0.1,1.9-0.1,2.9-0.1c1.4,0,2.8,0.3,4.1,0.6c0.7,0.1,1.3,0.3,2,0.4c4.8,0.8,9.7,1.1,14.6,1c2.7,0,5.4-0.1,8.1-0.2
	c2.3-0.1,4.7-0.2,7-0.2c2.5,0,4.9,0.1,7.4,0.2c0.9,0.1,1.8,0.2,2.6,0.4c0.1,0,0.3,0.1,0.4,0.2c0.7,0.4,1.5,0.7,2.2,1.1
	c0.3,0.2,0.6,0.3,0.8,0.5l-0.4,0.8c-3,1-6,1.8-9.1,2.2c-1.2,0.2-2.3,0.5-3.4,0.8C92.6,122.2,90.7,122.6,88.8,122.8z M106.9,98.1
	c1.2,1.6,2.3,3.3,3.3,5c0.1,0.2,0.1,0.3,0.1,0.5c-0.1,0.3-0.3,0.7-0.5,1.1c-0.6-0.4-1.1-0.8-1.6-1.2c-0.1-0.1-0.2-0.3-0.2-0.4
	c-0.1-1.2-0.7-2.2-1-3.3c-0.2-0.5-0.4-0.9-0.5-1.4C106.5,98,106.9,98.1,106.9,98.1z M72.1,104.3c0.1-0.2,0.2-0.3,0.4-0.4
	c0.2-0.1,0.4-0.2,0.6-0.2c1,0,2.1,0,3.1,0.1c0.6,0.1,1.2,0.1,1.8,0.1c2.6,0.2,5.1,0.4,7.7,0.1c2.2-0.3,4.4,0,6.6,0.1
	c2.2,0.1,4.4,0.1,6.6,0.1c1.6,0,3.1,0.3,4.6,0.7c0.8,0.3,1.7,0.5,2.5,0.8c0.4,0.1,0.7,0.3,1,0.6c0.4,0.2,0.7,0.6,0.9,0.9
	c0.2,0.3,0.4,0.8,0.4,1.2c0.1,0.5,0.2,1.1,0.2,1.7c0,0.8,0.1,1.6,0.1,2.4c0,0.5,0.1,0.9,0.2,1.3c-0.1,0.1-0.1,0.3,0,0.5l-0.5,1.1
	c-0.3,0-0.7,0-1-0.1c-1-0.3-1.9-0.5-2.9-0.7c-1.6-0.2-3.3-0.5-4.9-0.6c-2.1-0.2-4.2-0.3-6.3-0.5c-0.7,0-1.4,0-2,0
	c-3.3-0.4-6.5-1.2-9.6-2.5c-2.2-0.9-4.4-2-6.5-3.2c-1.1-0.7-2.1-1.5-2.9-2.5c-0.1-0.2-0.2-0.3-0.2-0.5C72,104.6,72,104.4,72.1,104.3
	z M42.7,99.8c0.3-0.2,0.6-0.3,0.9-0.3c1.1,0,2.1,0,3.2,0.1c0.7,0.1,1.4,0.2,2.1,0.3c2,0.3,4,0.1,6,0.5c0.1,0,0.1,0,0.2,0
	c1.6,0.3,3.1,0.6,4.7,0.9c0.8,0.2,1.6,0.3,2.3,0.5c1.5,0.3,3.1,0.6,4.6,1c0.6,0.1,1.3,0.3,1.9,0.5c0.1,0,0.3,0.1,0.4,0.2
	c0.1,0.1,0.2,0.2,0.3,0.3c0.1,0.1,0.1,0.2,0.2,0.3c0.9,1.2,1.6,2.7,2.8,3.7c2.4,2,5.2,3.6,8.2,4.6c1.4,0.4,2.8,0.9,4.4,1.5
	c-2.8,0.1-5.4,0.4-8,0.4c-4.4,0-8.7-0.3-13-1c-0.6-0.1-1.2-0.3-1.8-0.4c-0.7-0.2-1.4-0.4-2.1-0.5c-1.7-0.3-3.3-0.8-4.9-1.4
	c-0.6-0.2-1.2-0.5-1.8-0.7c-2.9-1.2-5.5-3-8.2-4.6c-1.9-1.2-3-2.6-3-4.7c0,0,0-0.1,0-0.1C42.3,100.3,42.4,100,42.7,99.8z
	 M30.2,106.2L30.2,106.2c0.8-0.6,1.8-1.4,2.3-1.8c0,0,0.1-0.1,0.1-0.1c1.7-1.5,3.7-2.5,5.7-3.5c0.3-0.1,0.5-0.2,0.8-0.3
	c0.1,0,0.2-0.1,0.3,0c0.1,0,0.2,0,0.3,0.1c0.1,0.1,0.2,0.1,0.2,0.2s0.1,0.2,0.1,0.3c0,0.5,0,0.9,0,1.3c0.4,1.4,0.8,2.7,2.1,3.6
	c1.4,1,2.9,1.9,4.3,2.9c-0.2,0-0.3-0.1-0.5-0.1c-2.8-0.7-5.5-1.4-8.3-2.1c-2.4-0.6-4.9-0.5-7.2,0.1c-0.1,0-0.1,0-0.2,0
	c-0.1,0-0.1-0.1-0.2-0.1c0-0.1,0-0.1,0-0.2C30.1,106.3,30.2,106.2,30.2,106.2z M20.7,117.6L20.7,117.6c0.3-0.5,0.6-1,1-1.5
	c0.7-1.1,1.5-2.2,2.4-3.2c0.9-0.4,1.7-1,2.5-1.7c1-1.1,2.4-1.9,3.8-2.5c1.7-0.6,3.6-0.8,5.3-0.4c2.4,0.4,4.7,1,7,1.6
	c3.2,0.8,6.6,1.7,9.9,2.7c0,0,0.1,0,0.1,0.1c0,0,0,0.1,0,0.1c0,0,0,0.1,0,0.1c0,0-0.1,0.1-0.1,0.1c-1.2,0.3-4,1-5.3,1.4
	c-0.6,0.1-1.1,0.4-1.6,0.8c-0.5,0.4-0.8,0.8-1,1.4c0,0.1,0,0.1-0.1,0.2c0,0.1-0.1,0.2-0.1,0.3c-0.1,0.1-0.2,0.2-0.3,0.2
	c-0.1,0.1-0.2,0.1-0.3,0.1c-0.1,0-0.2,0-0.4,0c-2.8-0.8-5.7-1.3-8.6-1.5c-3.9-0.1-7.8,0.2-11.6,1.5c-0.7,0.2-1.4,0.5-2,0.9
	c-0.1,0-0.2,0.1-0.2,0c-0.1,0-0.2,0-0.2-0.1c-0.1-0.1-0.1-0.1-0.1-0.2C20.6,117.7,20.6,117.7,20.7,117.6z M28.2,133.7
	c0,0.1-0.1,0.1-0.1,0.2c0,0.1-0.1,0.2-0.2,0.3c-0.1,0.1-0.2,0.2-0.3,0.2c-0.1,0.1-0.2,0.1-0.3,0.1c-0.1,0-0.3,0-0.4,0
	c-0.7-0.2-1.5-0.4-2.2-0.6c-0.8-0.2-1.6-0.6-2.4-0.9c0,0-0.1,0-0.2-0.1c-0.2-0.6-0.9-0.6-1.3-0.8c-0.6-0.3-1.2-0.8-1.5-1.4
	c-1-1.7-1.4-3.7-1.2-5.6c0.1-0.4,0.2-0.9,0.3-1.3l0.1-0.2c0.5-1.6,1.7-3,3.2-3.9c1.7-0.9,3.6-1.5,5.6-1.7c4.9-0.8,9.8-0.1,14.6,0.7
	c1.5,0.2,2.9,1,4.3,1.5c1.5,0.6,3,1.2,4.5,1.9c0.3,0.2,0.6,0.3,0.9,0.5c-0.1,0.1-0.2,0.1-0.2,0.1c-0.1,0-0.3,0-0.4,0
	c-1.8-0.3-3.6-0.4-5.3-0.2c-2.2,0.3-4.4,0.7-6.3,1.8c-0.8,0.5-1.8,0.8-2.7,1.3c-0.6,0.3-1.2,0.6-1.8,1c-1.5,1-2.9,2.1-4.3,3.2
	C29.6,130.8,28.7,132.2,28.2,133.7z M41,135.3L41,135.3c-1.6,0.1-3.1,0.2-4.6,0.5c-1.4,0.3-2.9,0.3-4.3-0.1l-1.5-0.3l-0.5-0.2
	c-0.1-0.1-0.3-0.2-0.3-0.4c0.1-0.9,0.2-1.8,0.8-2.5c1.3-1.4,2.7-2.6,4.3-3.7c0.7-0.5,1.4-1,2.1-1.4c3.4-1.7,7.2-2.5,11-2.4
	c2.3,0,4.7,0.1,7,0.3c1.2,0.1,2.5,0.1,3.7,0.2c1.1,0.1,2.2,0.1,3.3,0.2c2.1,0.2,4.3,0.3,6.4,0.5c1.9,0.2,3.9,0.1,5.8-0.4
	c1-0.3,3.4-0.9,3.1-0.3c-0.4,0.8-10.3,3.1-15.2,5.5c0,0-0.1,0-0.1,0.1c-1.4,0.7-2.9,1.3-4,2.5c-0.1,0-0.1,0.1-0.2,0.1l-2.3,1.7
	c-0.2,0.1-0.3,0.2-0.5,0.3c-0.2,0.1-0.3,0.1-0.5,0.2c-0.4,0.1-0.8,0.1-1.2,0l-0.7-0.1c-0.4-0.1-0.8-0.1-1.2-0.2
	c-1.1-0.3-2.2-0.5-3.4-0.5c-1.4,0-2.7,0-4.1,0.1C43,135.1,42,135.2,41,135.3z M39.8,148.6L39.8,148.6c0.6-1.6,1.1-3.2,1.8-4.8
	c0.4-0.8,1-1.6,1.7-2.2c1.5-1.5,3.4-2.8,5.4-3.5c0.5-0.2,1-0.2,1.5-0.3c0.7-0.1,1.5-0.1,2.2-0.1c0.1,0,0.3,0,0.4,0
	c0.8,0.2,1.5,0.3,2.3,0.5c1.8,0.5,3.7,1.1,5.5,1.6h0.1c0.1,0,0.2,0.1,0.3,0.2c0.1,0.1,0.1,0.2,0.1,0.3c0,0.1,0,0.2,0,0.3
	s-0.1,0.2-0.2,0.2c-1.2,0.7-2.9,1.7-3.7,2.3c-0.7,0.5-1.5,1-2.1,1.5c-0.8,0.6-1.6,1.3-2.4,2c-1.1,1.1-2.5,1.2-3.7,1.9
	c-0.6,0.3-1.5,0.2-2.2,0.4c-2,0.5-3.9,1-5.8,1.5c-0.4,0.1-0.8,0.6-1.2,0.1C39.2,150,39.5,149.2,39.8,148.6z M44.7,156.6L44.7,156.6
	c-0.2,0.2-0.5,0.5-0.8,0.6c-0.2,0.1-0.4,0.2-0.7,0.2c-0.2,0-0.5-0.1-0.7-0.3c-0.5-0.5-0.9-1-1.2-1.6c-0.3-0.5-0.6-1-1-1.4
	c-0.1-0.1-0.1-0.1-0.2-0.2c-0.1-0.2-0.2-0.4-0.2-0.6c0-0.2,0.1-0.4,0.2-0.6c0.2-0.3,0.4-0.7,0.7-0.9c0.3-0.2,0.7-0.4,1.1-0.5
	c1.2-0.2,2.4-0.5,3.6-0.7c1.4-0.3,2.8-0.7,4.3-0.9c1.8-0.2,3.5-0.2,5.3-0.3c0.3,0,0.6,0,1,0c0.5,0,1.1-0.1,1.7-0.1
	c-0.1,0.1-0.2,0.2-0.3,0.2c-0.8,0.4-1.5,0.7-2.3,1c-2.6,1.2-5.2,2.3-7.7,3.6C46.4,154.8,45.5,155.6,44.7,156.6z M56.8,159.6
	c-0.1,0.2-0.3,0.4-0.6,0.5c-0.2,0.1-0.5,0.2-0.8,0.2h-0.5c-1.8,0.1-3.7,0-5.5-0.4c-0.7-0.1-1.4-0.3-2-0.5c-0.2-0.1-0.5-0.2-0.7-0.3
	s-0.3-0.4-0.4-0.6c-0.1-0.2-0.1-0.5-0.1-0.7c0-0.2,0.1-0.5,0.2-0.7c0.1-0.1,0.1-0.2,0.2-0.2c0.7-1,1.7-1.7,2.8-2.3
	c1.9-1,3.8-1.9,5.7-2.9c0.8-0.4,1.7-0.8,2.5-1.2c1.5-0.7,2.9-1.2,4.5-1.5c2.4-0.6,4.8-0.7,7.4-0.1c0,0.5-0.5,0.5-0.9,0.7
	c-2.5,0.9-4.6,2.2-6.5,3.8c-0.8,0.6-1.5,1.3-2.2,2c-1.1,1.1-1.8,2.4-2.7,3.6L56.8,159.6z M71.6,158.9L71.6,158.9
	c-0.9,0.1-1.8,0.2-2.7,0.2c-1.7,0.1-3.3,0.3-5,0.5c-0.6,0.1-1.2,0.1-1.7,0.2c-0.1,0-0.2,0-0.4,0c-0.9,0-2.8,0.3-3.4,0.3h-0.1
	c0,0,0,0-0.1,0c0,0,0,0-0.1-0.1c0,0,0,0,0-0.1c-0.1-0.3-0.1-0.6,0-0.8c0.6-1,1.1-2.2,2-3c0.6-0.6,1.3-1.1,2-1.6c1.3-1,2.7-2,4.1-2.9
	c2.8-1.7,6-2.1,9.2-2.8c1.2-0.2,2.4-0.4,3.5-0.6l3-0.5c-0.2,0.2-0.3,0.3-0.5,0.4c-2.4,1.5-4.4,3.4-6.2,5.6c-0.9,1-1.6,2.1-2.2,3.2
	C72.7,157.7,72.4,158.5,71.6,158.9z M98.5,139.1L98.5,139.1c-1.1,1.8-2.1,3.6-3.2,5.3c-0.1,0.3-0.3,0.5-0.5,0.7
	c-0.8,0.9-1.5,1.9-2.3,2.8s-1.6,1.7-2.4,2.5c-0.6,0.6-1.2,1.2-1.8,1.8c-0.7,0.8-1.5,1.4-2.4,1.9c-1.8,1-3.7,1.8-5.6,2.7
	c-1.5,0.6-3,1-4.6,1.3c-0.2,0-0.5,0.1-0.7,0.2c-0.1,0-0.2,0-0.3,0c-0.1,0-0.2-0.1-0.2-0.1c-0.1-0.1-0.1-0.2-0.1-0.2
	c0-0.1,0-0.2,0-0.3c0.5-1,1.5-2.8,2.8-3.8c1.7-1.4,2.9-3.2,4.5-4.7c1.7-1.5,3.5-2.2,5.5-2.9c1.6-0.6,3.2-1.4,4.9-2
	c0.1,0,0.2-0.1,0.2-0.1c1.1-1,2.2-1.9,3.3-2.9c1.6-1.6,3.3-3.2,4.5-5C99.6,137.1,99.1,138.1,98.5,139.1z M100.6,133.3L100.6,133.3
	c-2,3.1-4.8,5.6-7.4,8.1c-1.2,1.2-2.6,2.1-4.1,2.9c-2.3,1.2-4.8,1.7-7.2,2.2c-2.1,0.5-4.3,0.6-6.4,1c-1.5,0.2-3,0.2-4.5-0.2
	c-0.3-0.1-0.6-0.3-0.4-0.7c1.1-1.6,2.1-3.4,4.2-4.2c0.3-0.1,1.2-0.5,1.9-0.8c1.6-0.2,3.2-0.5,4.7-1.1c0.7-0.3,1.4-0.5,2.2-0.7
	c2.3-0.8,4.5-2,6.5-3.3c2.5-1.6,5.1-2.9,7.7-4.3c0.5-0.2,1-0.4,1.5-0.6c0.1-0.1,0.3-0.1,0.4-0.1c0.2,0,0.3,0.1,0.4,0.2
	c0.3,0.3,0.8,0.7,0.8,1.1C100.9,133,100.7,133.1,100.6,133.3z M99.3,129.6L99.3,129.6c-0.4,0.2-0.8,0.3-1.2,0.5
	c-0.6,0.2-1.2,0.4-1.8,0.7c-1,0.4-2,0.9-3,1.4c-1.6,0.8-3.1,1.7-4.6,2.7c-2.4,1.6-5.1,2.8-7.8,3.7c-0.1-0.1-0.3-0.2-0.4-0.3
	c-0.1-0.1-0.2-0.3-0.2-0.4c0-0.2,0-0.3,0-0.5c0-0.2,0.1-0.3,0.2-0.4c0.9-1.7,1.8-3.4,3.1-4.8c3.8-4.2,8.8-7.2,14.5-8.8
	c0.2-0.1,0.4-0.2,0.6-0.3c0.2-0.1,0.3-0.4,0.6-0.4c1.3-0.3,2.7-0.5,4-0.7c0.6-0.1,1.2-0.2,1.8-0.2c-0.8,1.6-1.5,3.2-2.1,4.8
	c-0.1,0.2-0.2,0.3-0.3,0.4C101.7,128,100.6,128.8,99.3,129.6z M150.3,145.5L150.3,145.5c-0.6,1.2-1.2,2.4-1.7,3.6
	c-0.1,0.3-0.3,0.6-0.5,0.9c-0.1,0-0.1,0.1-0.2,0c-0.8-0.3-1-0.2-1.5,0.5c-0.2,0.3-0.4,0.7-0.6,1c-0.1,0.2-0.2,0.3-0.5,0.1
	c-0.1-0.1-0.2-0.1-0.3-0.2c-0.1,0-0.3,0-0.4,0c-0.1,0-0.3,0.1-0.4,0.1c-0.1,0.1-0.2,0.2-0.3,0.3c-0.2,0.2-0.3,0.4-0.5,0.7
	c-0.1,0.1-0.1,0.2-0.2,0.3c-0.2,0-0.5,0.1-0.7,0.1v-0.5c0-0.2,0.1-0.3,0.1-0.4c0-0.2,0-0.3-0.1-0.5c-0.1-0.1-0.2-0.2-0.4-0.3
	c-0.2-0.1-0.3-0.1-0.5,0c-0.2,0-0.3,0.1-0.4,0.3c-0.1,0.1-0.2,0.3-0.3,0.3c-0.5,0.1-0.7,0.5-0.9,0.9c-0.2,0.4-0.4,0.8-0.6,1.2
	c-0.3,0.6-0.3,0.6-1,0.5c0.1-0.3,0.2-0.6,0.2-0.9c0-0.1,0-0.3-0.1-0.4c-0.1-0.1-0.2-0.2-0.3-0.3c-0.1-0.1-0.3-0.1-0.4-0.1
	c-0.1,0-0.3,0-0.4,0.1c-0.2,0.1-0.4,0.3-0.5,0.5c-0.2,0.3-0.4,0.7-0.6,1c-0.2,0.3-0.4,0.8-0.6,1.2c-0.1-0.9-0.4-1.2-1-1.1
	c-0.4,0-0.5,0-0.4-0.4c0-0.1,0-0.2,0-0.3c0-0.2,0-0.3-0.1-0.4c-0.1-0.1-0.2-0.2-0.4-0.2c-0.2,0-0.3,0-0.5,0c-0.2,0-0.3,0.2-0.4,0.3
	c-0.1,0.1-0.2,0.3-0.3,0.3c-0.8,0.1-0.9,0.7-1,1.3c-0.1,0.6-0.3,1.2-0.4,1.9c0-0.4,0-0.8,0-1.1c0-0.6,0-1.1,0-1.7
	c0-0.2-0.1-0.3-0.2-0.5c-0.1-0.1-0.3-0.2-0.5-0.2c-0.2,0-0.4,0-0.5,0.1c-0.1,0.1-0.2,0.2-0.3,0.4c0,0.2-0.1,0.3-0.1,0.5l-0.2,0.7
	c-0.7-0.5-0.9-0.5-1.4,0c-0.3,0.2-0.3,0.2-0.4-0.1c-0.1-0.4-0.1-0.7-0.2-1c-0.2-0.5-0.5-0.8-0.9-0.8c-0.4,0-0.8,0.2-1,0.8
	c-0.1,0.3-0.1,0.7-0.2,1c0,0.2-0.2,0.3-0.4,0.1c-0.2-0.2-0.4-0.4-0.7-0.4c-0.2,0-0.5,0.2-0.8,0.2c-0.1-0.4-0.2-0.8-0.3-1.2
	c0-0.2-0.1-0.3-0.3-0.4c-0.2-0.1-0.3-0.1-0.5-0.1c-0.2,0-0.3,0.1-0.5,0.2c-0.1,0.1-0.2,0.3-0.2,0.4c-0.1,0.5-0.1,1-0.1,1.5
	c0,0.5,0.1,0.9,0.1,1.4c-0.2-0.8-0.4-1.6-0.6-2.4c0-0.1-0.1-0.3-0.2-0.4c-0.1-0.1-0.2-0.2-0.4-0.2c-0.3-0.1-0.5-0.2-0.6-0.5
	c-0.1-0.1-0.2-0.2-0.4-0.3c-0.2-0.1-0.3-0.1-0.5,0c-0.1,0-0.3,0.1-0.4,0.2c-0.1,0.1-0.1,0.3-0.1,0.4c0,0.1-0.1,0.2-0.1,0.4
	c0,0.3-0.1,0.4-0.4,0.4c-0.6-0.1-0.9,0.2-1,0.7c0,0.1,0,0.2,0,0.4c-0.4-0.7-0.7-1.4-1.1-2c-0.1-0.2-0.3-0.5-0.5-0.6
	c-0.1-0.1-0.3-0.2-0.4-0.2c-0.2,0-0.3,0-0.5,0.1c-0.1,0.1-0.2,0.2-0.3,0.3c-0.1,0.1-0.1,0.3,0,0.4c0,0.3,0.1,0.5,0.2,0.8
	c-0.6,0.2-0.8-0.1-1-0.5c-0.2-0.5-0.4-0.9-0.7-1.4c-0.1-0.2-0.3-0.4-0.5-0.6c-0.2-0.2-0.4-0.3-0.6-0.4c-0.1-0.1-0.2-0.2-0.4-0.3
	c-0.2,0-0.3,0-0.5,0c-0.2,0.1-0.3,0.2-0.4,0.3s-0.1,0.3-0.1,0.5c0,0.1,0.1,0.3,0.1,0.4c0,0.1,0,0.3,0,0.5c-0.2,0-0.5-0.1-0.7-0.1
	c-0.1,0-0.2-0.2-0.2-0.3c-0.2-0.2-0.3-0.5-0.5-0.7c-0.1-0.1-0.2-0.2-0.3-0.3c-0.1-0.1-0.2-0.1-0.4-0.2c-0.1,0-0.3,0-0.4,0
	c-0.1,0-0.3,0.1-0.4,0.2c-0.3,0.2-0.4,0-0.5-0.1c-0.3-0.4-0.5-0.9-0.8-1.3c0-0.1-0.1-0.2-0.2-0.3c-0.1-0.1-0.2-0.1-0.3-0.2
	c-0.1,0-0.2,0-0.3,0c-0.1,0-0.2,0.1-0.3,0.1c-0.2,0.1-0.2,0.2-0.4,0c0,0-0.1,0-0.1-0.1c-0.1-0.2-0.3-0.5-0.4-0.8
	c-0.5-1.2-1.1-2.4-1.7-3.6c-0.4-0.9-0.6-1.8-0.5-2.8c0.2-1,0.3-1.9,0.5-2.9c0.1-0.3,0.1-0.6,0.2-1c0.1,0.3,0.2,0.6,0.2,1
	c0,0.2,0.1,0.4,0.2,0.5c0.1,0.2,0.3,0.3,0.5,0.4c0.2,0.1,0.4,0,0.6,0c0.4-0.2,0.5,0,0.6,0.3c0,0.2,0.1,0.3,0.2,0.5
	c0.1,0.2,0.2,0.3,0.4,0.4c0.2,0.1,0.3,0.1,0.5,0.2c0.2,0,0.4,0,0.5-0.1c0.3-0.1,0.4,0,0.5,0.2c0.6,0.9,1.5,0.9,2.2,0.1
	c0.2-0.2,0.3-0.5,0.5-0.8c0,0.2,0.1,0.4,0.1,0.5c0,0.2,0.1,0.3,0.2,0.4c0.1,0.1,0.3,0.2,0.4,0.3c0.2,0.1,0.4,0.1,0.5,0.1
	c0.2,0,0.3-0.1,0.5-0.2c0.5-0.3,0.9-0.6,1.3-0.9c0.4,0.8,0.9,1,1.7,0.7c0.5-0.2,0.5-0.1,0.8,0.2c0.2,0.2,0.4,0.5,0.6,0.6
	c0.1,0,0.2,0.1,0.3,0.2c0.1,0.1,0.1,0.2,0.2,0.3c0,0.2,0.1,0.3,0.3,0.4c0.1,0.1,0.3,0.2,0.5,0.2c0.2,0,0.4,0,0.5-0.1
	c0.2-0.1,0.3-0.2,0.3-0.4c0-0.1,0.1-0.3,0.2-0.3c0.5-0.1,0.7-0.4,0.9-0.9c0.1,0.2,0.2,0.4,0.2,0.7c0.1,0.4,0.3,0.7,0.8,0.8
	c0.4,0,0.7-0.2,1-0.7c0.1-0.2,0.1-0.4,0.2-0.6c0.1,0.3,0.2,0.5,0.4,0.8c0,0.1,0.1,0.2,0.2,0.3c0.1,0.1,0.2,0.1,0.3,0.2
	c0.1,0,0.2,0.1,0.3,0c0.1,0,0.2,0,0.3-0.1c0.4-0.2,0.8-0.3,1.2-0.2c0.1,0,0.3,0,0.4,0c0.1,0,0.2,0.1,0.3,0.2
	c0.1,0.1,0.2,0.1,0.3,0.2c0.1,0,0.2,0.1,0.4,0c0.1,0,0.2,0,0.4-0.1c0.1-0.1,0.2-0.2,0.3-0.2c0.6-0.8,0.9-0.8,1.5,0
	c0.1,0.1,0.2,0.2,0.2,0.2c0.1,0.1,0.2,0.1,0.3,0.1c0.1,0,0.2,0,0.3,0c0.1,0,0.2-0.1,0.3-0.1c0.6-0.5,1.2-0.3,1.8-0.1
	c0.1,0.1,0.3,0.1,0.4,0.1c0.1,0,0.3,0,0.4,0s0.3-0.1,0.4-0.2c0.1-0.1,0.2-0.2,0.3-0.3c0.1-0.2,0.2-0.4,0.3-0.7
	c0.1,0.3,0.2,0.5,0.2,0.7c0.1,0.2,0.2,0.3,0.3,0.5s0.4,0.2,0.6,0.2c0.4,0,0.7-0.3,0.8-0.7c0.1-0.2,0.1-0.5,0.2-0.8
	c0.1,0.2,0.2,0.4,0.3,0.6c0.1,0.2,0.3,0.3,0.6,0.4c0.1,0.1,0.2,0.2,0.2,0.3c0,0.2,0.1,0.3,0.3,0.4c0.1,0.1,0.3,0.2,0.5,0.2
	c0.4,0,0.6-0.2,0.8-0.7c0-0.1,0.1-0.3,0.2-0.3c0.5-0.1,0.7-0.4,1-0.8c0.1-0.2,0.2-0.3,0.5-0.2c1,0.4,1.4,0.3,1.8-0.5
	c0.2,0.2,0.4,0.3,0.7,0.5c0.2,0.2,0.5,0.3,0.8,0.4c0.1,0.1,0.3,0.1,0.5,0.1c0.2,0,0.3,0,0.5-0.1c0.1-0.1,0.3-0.2,0.4-0.3
	c0.1-0.1,0.2-0.3,0.2-0.4c0.1-0.2,0.1-0.3,0.2-0.6c0.1,0.2,0.2,0.5,0.3,0.7c0.6,0.9,1.7,1,2.3,0c0-0.1,0.1-0.1,0.2-0.2
	c0.1,0,0.2,0,0.3,0c0.2,0.1,0.3,0.1,0.5,0.1c0.2,0,0.3-0.1,0.5-0.1c0.2-0.1,0.3-0.2,0.4-0.3c0.1-0.1,0.2-0.3,0.2-0.4
	c0-0.1,0.1-0.2,0.1-0.3c0-0.2,0.1-0.2,0.3-0.2c0.9,0.2,1.4,0,1.6-0.8v0.1c0.2,1,0.3,1.9,0.5,2.9
	C150.8,143.7,150.7,144.7,150.3,145.5z M149.6,127L149.6,127c-0.1-0.1-0.2-0.3-0.3-0.5c-0.6-1.6-1.3-3.2-2.1-4.8
	c0.6,0,1.2,0,1.8,0.1c1.3,0.2,2.7,0.5,4,0.8c0.2,0,0.4,0.3,0.6,0.4s0.4,0.2,0.6,0.3c5.7,1.5,10.7,4.6,14.5,8.8
	c1.3,1.4,2.2,3.1,3.1,4.8c0.1,0.1,0.2,0.3,0.2,0.4c0,0.2,0,0.3,0,0.5c0,0.2-0.1,0.3-0.2,0.4c-0.1,0.1-0.2,0.2-0.4,0.3
	c-2.8-0.9-5.4-2.1-7.8-3.7c-1.5-1-3-1.8-4.6-2.7c-1-0.5-2-1-3-1.4c-0.6-0.3-1.2-0.5-1.8-0.7c-0.4-0.1-0.8-0.3-1.2-0.5
	C151.8,128.8,150.7,128,149.6,127z M151.5,132.8L151.5,132.8c0-0.3,0.5-0.8,0.8-1.1c0.1-0.1,0.3-0.2,0.4-0.2c0.1,0,0.3,0,0.4,0.1
	c0.5,0.2,1,0.4,1.5,0.6c2.6,1.4,5.2,2.7,7.7,4.3c2,1.4,4.2,2.5,6.5,3.3c0.7,0.2,1.4,0.5,2.2,0.7c1.5,0.6,3.1,0.9,4.7,1.1
	c0.7,0.3,1.6,0.7,1.9,0.8c2.1,0.8,3.1,2.5,4.2,4.2c0.3,0.4-0.1,0.6-0.4,0.7c-1.5,0.4-3,0.4-4.5,0.2c-2.1-0.4-4.3-0.5-6.4-1
	c-2.5-0.6-4.9-1.1-7.2-2.2c-1.5-0.8-2.9-1.7-4.1-2.9c-2.7-2.6-5.4-5.1-7.4-8.1C151.7,133.1,151.5,133,151.5,132.8z M177.9,158.2
	c0,0.1-0.1,0.1-0.2,0.2c-0.1,0-0.2,0-0.3,0l0,0c-0.2,0-0.5-0.1-0.7-0.2c-1.6-0.3-3.1-0.8-4.6-1.3c-1.9-0.9-3.8-1.7-5.6-2.7
	c-0.9-0.5-1.7-1.2-2.4-1.9c-0.6-0.6-1.2-1.2-1.8-1.8c-0.8-0.8-1.7-1.7-2.4-2.5c-0.8-0.9-1.6-1.8-2.3-2.8c-0.2-0.2-0.4-0.5-0.5-0.7
	c-1.1-1.8-2.1-3.6-3.2-5.4c-0.6-1-1.1-2-1.5-3c1.2,1.9,2.9,3.5,4.5,5c1.1,1,2.2,1.9,3.3,2.9c0.1,0,0.1,0.1,0.2,0.1
	c1.6,0.7,3.2,1.5,4.9,2c2,0.7,3.9,1.5,5.5,2.9c1.6,1.4,2.8,3.3,4.5,4.7c1.2,1,2.2,2.8,2.8,3.8c0,0.1,0,0.2,0,0.2
	C178,158,178,158.1,177.9,158.2z M194.2,160L194.2,160C194.1,160,194.1,160,194.2,160c-0.1,0.1-0.1,0.1-0.1,0.1c0,0,0,0-0.1,0h-0.1
	c-0.6-0.1-2.4-0.3-3.4-0.3c-0.2,0-0.3,0-0.5,0c-0.5,0-1.1-0.1-1.6-0.2c-1.7-0.2-3.3-0.4-5-0.5c-0.9,0-1.8-0.1-2.7-0.2
	c-0.8-0.4-1.1-1.2-1.5-2c-0.6-1.1-1.4-2.2-2.2-3.2c-1.7-2.1-3.8-4-6.1-5.5c-0.1-0.1-0.3-0.2-0.5-0.4l3,0.5c1.2,0.2,2.4,0.3,3.6,0.6
	c3.2,0.6,6.5,1.1,9.2,2.8c1.4,0.8,2.7,1.8,4,2.8c0.7,0.6,1.4,1.1,2.1,1.7c0.9,0.8,1.4,2,2,3C194.2,159.4,194.2,159.7,194.2,160z
	 M206.1,158.5c-0.1,0.2-0.2,0.4-0.4,0.6c-0.2,0.2-0.4,0.3-0.6,0.3h0c-0.7,0.2-1.4,0.3-2,0.5c-1.8,0.3-3.6,0.5-5.5,0.4h-0.5
	c-0.3,0-0.5-0.1-0.8-0.2c-0.2-0.1-0.4-0.3-0.6-0.5l-0.5-0.7c-0.9-1.2-1.7-2.5-2.7-3.6c-0.7-0.8-1.5-1.5-2.3-2.1
	c-1.8-1.6-3.9-2.9-6.3-3.7c-0.4-0.1-0.9-0.2-0.9-0.7c2.5-0.5,4.9-0.4,7.2,0.1c1.6,0.4,3.1,0.9,4.6,1.6c0.8,0.4,1.6,0.8,2.4,1.1
	c2,1,3.9,2,5.8,3c1.1,0.5,2.1,1.3,2.8,2.3c0.1,0.1,0.1,0.2,0.2,0.2c0.1,0.2,0.2,0.4,0.2,0.7C206.2,158,206.1,158.2,206.1,158.5z
	 M212.2,154L212.2,154c-0.1,0.1-0.1,0.1-0.2,0.2c-0.4,0.4-0.7,0.9-1,1.4c-0.3,0.6-0.7,1.1-1.2,1.6c-0.2,0.1-0.4,0.2-0.6,0.2
	c-0.2,0-0.5-0.1-0.7-0.2c-0.3-0.2-0.6-0.4-0.8-0.6c-0.8-1-1.7-1.8-2.8-2.4c-2.6-1.3-5.2-2.5-7.8-3.7c-0.7-0.3-1.4-0.7-2.2-1
	c-0.1-0.1-0.3-0.1-0.3-0.2c0.5,0,1.1,0.1,1.6,0.1c0.3,0,0.6,0,0.8,0c1.8,0.1,3.6,0.2,5.4,0.3c1.5,0.2,2.9,0.6,4.3,0.8
	c1.2,0.2,2.4,0.5,3.6,0.7c0.4,0.1,0.8,0.2,1.1,0.5c0.3,0.2,0.6,0.5,0.7,0.9c0.1,0.2,0.2,0.4,0.2,0.6
	C212.4,153.6,212.3,153.8,212.2,154z M212.8,152.4L212.8,152.4L212.8,152.4C212.8,152.4,212.8,152.4,212.8,152.4L212.8,152.4z
	 M209.1,141.6L209.1,141.6c0.6,0.6,1.2,1.4,1.6,2.2c0.7,1.6,1.2,3.2,1.9,4.8c0.2,0.6,0.5,1.3-0.1,2c-0.4,0.5-0.8,0-1.2-0.1
	c-1.9-0.5-3.9-1-5.8-1.5c-0.7-0.2-1.6-0.1-2.2-0.4c-1.2-0.7-2.7-0.8-3.7-1.9c-0.8-0.8-1.6-1.5-2.5-2.1c-0.7-0.5-1.3-1-2-1.4
	c-0.8-0.5-2.4-1.5-3.7-2.3c-0.1-0.1-0.2-0.1-0.2-0.2c0-0.1,0-0.2,0-0.3c0-0.1,0.1-0.2,0.2-0.3c0.1-0.1,0.2-0.1,0.3-0.2h0.1
	c1.8-0.5,3.6-1.1,5.4-1.6c0.8-0.2,1.6-0.4,2.4-0.6c0.1,0,0.3,0,0.4,0c0.8,0,1.5,0,2.2,0.1c0.5,0,1,0.1,1.5,0.3
	C205.7,138.9,207.6,140.1,209.1,141.6z M222.2,135.2L222.2,135.2l-0.5,0.2l-1.5,0.3c-1.4,0.3-2.9,0.3-4.4,0
	c-1.5-0.2-3.1-0.4-4.6-0.5c-1-0.1-2-0.2-3-0.3c-1.4-0.1-2.7-0.2-4.1-0.1c-1.2,0.1-2.3,0.2-3.4,0.5c-0.4,0.1-0.8,0.2-1.2,0.2
	l-0.7,0.1c-0.4,0.1-0.8,0-1.2,0c-0.2,0-0.5-0.1-0.7-0.2c-0.1-0.1-0.3-0.1-0.4-0.2l-2.3-1.8c-0.1,0-0.1-0.1-0.2-0.1
	c-1.1-1.2-2.6-1.9-4.1-2.6h0c-4.9-2.4-14.7-4.7-15.2-5.5c-0.4-0.6,2,0,3.1,0.3c1.9,0.5,3.9,0.6,5.8,0.4c2.1-0.2,4.2-0.4,6.3-0.5
	c1.1-0.1,2.3-0.2,3.4-0.2c1.2-0.1,2.4-0.2,3.6-0.2c2.4-0.1,4.8-0.3,7.2-0.3c3.8-0.1,7.6,0.8,11,2.4c0.8,0.4,1.5,0.9,2.1,1.4
	c1.5,1.1,3,2.4,4.3,3.7c0.7,0.8,0.7,1.7,0.8,2.5C222.5,134.9,222.4,135.1,222.2,135.2z M233,130.8c-0.3,0.6-0.9,1.1-1.5,1.4
	c-0.5,0.2-1.1,0.3-1.3,0.8c0,0-0.1,0.1-0.2,0.1c-0.8,0.3-1.6,0.7-2.4,0.9c-0.7,0.2-1.5,0.4-2.2,0.6c-0.1,0-0.2,0-0.4,0
	c-0.1,0-0.2-0.1-0.4-0.1c-0.1-0.1-0.2-0.2-0.3-0.2c-0.1-0.1-0.1-0.2-0.1-0.3c0-0.1,0-0.1-0.1-0.2c-0.5-1.5-1.4-2.9-2.7-4
	c-1.4-1.1-2.9-2.2-4.3-3.2c-0.6-0.4-1.2-0.7-1.8-1c-0.9-0.4-1.8-0.8-2.7-1.3c-1.9-1.1-4.1-1.5-6.3-1.8c-1.8-0.2-3.6-0.1-5.3,0.2
	c-0.1,0-0.3,0-0.4,0c0,0-0.1,0-0.2-0.1c0.3-0.2,0.6-0.4,0.9-0.5c1.5-0.7,3-1.3,4.5-1.9c1.4-0.6,2.8-1.3,4.3-1.5
	c4.8-0.8,9.7-1.5,14.6-0.7c2,0.3,3.9,0.9,5.6,1.7c1.6,0.9,2.7,2.3,3.3,3.9l0.1,0.2c0.1,0.4,0.2,0.9,0.3,1.3
	C234.5,127.1,234.1,129.1,233,130.8z"/>
</svg>
