<svg width="180" height="180" viewBox="0 0 180 180" fill="none" xmlns="http://www.w3.org/2000/svg">
<path d="M129.2 138H50.8C45.3876 138 41 133.629 41 128.238V74.7849C41.1654 71.5091 42.9467 68.5267 45.7579 66.819L84.9579 43.3897C88.0602 41.5368 91.9349 41.5368 95.0372 43.3897L134.237 66.819C137.183 68.5897 138.988 71.7628 139 75.1901V128.238C139 133.629 134.612 138 129.2 138ZM50.8 78.7826V128.238H129.2V78.7826L90 104.813L50.8 78.7826ZM90 51.7608L57.2484 71.334L90 93.0842L122.747 71.334L90 51.7608Z" fill="white"/>
</svg>
