<svg width="180" height="180" viewBox="0 0 180 180" fill="none" xmlns="http://www.w3.org/2000/svg">
<g clip-path="url(#clip0_838_65)">
<path d="M107 47.5C109.254 47.5 111.416 48.3955 113.01 49.9896C114.604 51.5837 115.5 53.7457 115.5 56V124C115.5 126.254 114.604 128.416 113.01 130.01C111.416 131.604 109.254 132.5 107 132.5H73C70.7457 132.5 68.5837 131.604 66.9896 130.01C65.3955 128.416 64.5 126.254 64.5 124V56C64.5 53.7457 65.3955 51.5837 66.9896 49.9896C68.5837 48.3955 70.7457 47.5 73 47.5H107ZM73 39C68.4913 39 64.1673 40.7911 60.9792 43.9792C57.7911 47.1673 56 51.4913 56 56V124C56 128.509 57.7911 132.833 60.9792 136.021C64.1673 139.209 68.4913 141 73 141H107C111.509 141 115.833 139.209 119.021 136.021C122.209 132.833 124 128.509 124 124V56C124 51.4913 122.209 47.1673 119.021 43.9792C115.833 40.7911 111.509 39 107 39H73Z" fill="white"/>
<path d="M90.0001 124C92.2544 124 94.4164 123.104 96.0105 121.51C97.6045 119.916 98.5001 117.754 98.5001 115.5C98.5001 113.246 97.6045 111.084 96.0105 109.49C94.4164 107.895 92.2544 107 90.0001 107C87.7457 107 85.5837 107.895 83.9897 109.49C82.3956 111.084 81.5001 113.246 81.5001 115.5C81.5001 117.754 82.3956 119.916 83.9897 121.51C85.5837 123.104 87.7457 124 90.0001 124ZM35.5916 56.4929C36.085 56.754 36.5222 57.1098 36.8782 57.5399C37.2341 57.97 37.5018 58.466 37.666 58.9996C37.8302 59.5332 37.8876 60.0939 37.8351 60.6498C37.7825 61.2056 37.6209 61.7456 37.3596 62.2389C32.8396 70.7933 30.4845 80.3248 30.5001 89.9999C30.5001 100.03 32.9821 109.482 37.3596 117.761C37.8871 118.757 37.9972 119.922 37.6656 121C37.334 122.078 36.588 122.979 35.5916 123.507C34.5951 124.034 33.43 124.145 32.3524 123.813C31.2748 123.481 30.3731 122.735 29.8456 121.739C24.6778 111.959 21.9841 101.062 22.0001 89.9999C22.0001 78.5504 24.8391 67.7384 29.8456 58.2609C30.1067 57.7674 30.4624 57.3302 30.8925 56.9743C31.3227 56.6184 31.8187 56.3507 32.3523 56.1865C32.8859 56.0223 33.4466 55.9648 34.0024 56.0174C34.5582 56.07 35.0982 56.2316 35.5916 56.4929V56.4929ZM144.409 56.4929C144.902 56.2316 145.442 56.07 145.998 56.0174C146.554 55.9648 147.114 56.0223 147.648 56.1865C148.181 56.3507 148.677 56.6184 149.108 56.9743C149.538 57.3302 149.893 57.7674 150.155 58.2609C155.323 68.041 158.016 78.9383 158 89.9999C158.016 101.062 155.323 111.959 150.155 121.739C149.627 122.735 148.725 123.481 147.648 123.813C146.57 124.145 145.405 124.034 144.409 123.507C143.412 122.979 142.666 122.078 142.335 121C142.003 119.922 142.113 118.757 142.641 117.761C147.16 109.207 149.516 99.675 149.5 89.9999C149.5 79.9699 147.018 70.5179 142.641 62.2389C142.379 61.7456 142.218 61.2056 142.165 60.6498C142.112 60.0939 142.17 59.5332 142.334 58.9996C142.498 58.466 142.766 57.97 143.122 57.5399C143.478 57.1098 143.915 56.754 144.409 56.4929ZM47.9846 69.0389C48.5049 69.2418 48.9802 69.5453 49.3832 69.932C49.7862 70.3187 50.109 70.781 50.3332 71.2926C50.5574 71.8041 50.6786 72.3548 50.6898 72.9132C50.701 73.4716 50.602 74.0268 50.3986 74.5469C48.477 79.472 47.494 84.7132 47.5001 89.9999C47.5001 95.4569 48.5201 100.667 50.3901 105.453C50.6273 105.978 50.7551 106.546 50.7659 107.123C50.7766 107.699 50.67 108.271 50.4526 108.805C50.2352 109.339 49.9115 109.823 49.5011 110.228C49.0908 110.632 48.6024 110.949 48.0656 111.16C47.5289 111.37 46.955 111.468 46.379 111.45C45.8029 111.431 45.2366 111.295 44.7146 111.051C44.1926 110.807 43.7258 110.459 43.3425 110.028C42.9592 109.598 42.6675 109.094 42.4851 108.547C40.177 102.636 38.995 96.3455 39.0001 89.9999C39.0001 83.4634 40.2326 77.2074 42.4851 71.4529C42.8949 70.4041 43.7043 69.5607 44.7354 69.1081C45.7665 68.6555 46.9351 68.6306 47.9846 69.0389V69.0389ZM132.016 69.0389C132.536 68.8354 133.091 68.7365 133.649 68.7477C134.208 68.7589 134.758 68.8801 135.27 69.1043C135.781 69.3285 136.244 69.6513 136.63 70.0543C137.017 70.4573 137.321 70.9325 137.524 71.4529C139.768 77.2074 141 83.4634 141 89.9999C141 96.5364 139.768 102.792 137.515 108.547C137.067 109.54 136.254 110.323 135.245 110.734C134.236 111.145 133.107 111.153 132.093 110.756C131.078 110.358 130.255 109.587 129.793 108.6C129.331 107.613 129.265 106.487 129.61 105.453C131.48 100.667 132.5 95.4569 132.5 89.9999C132.5 84.5429 131.48 79.3324 129.61 74.5469C129.199 73.4975 129.221 72.3277 129.672 71.2947C130.123 70.2618 130.966 69.4503 132.016 69.0389V69.0389Z" fill="white"/>
</g>
<defs>
<clipPath id="clip0_838_65">
<rect width="136" height="136" fill="white" transform="translate(22 22)"/>
</clipPath>
</defs>
</svg>
