<?xml version="1.0" encoding="utf-8"?>
<!-- Generator: Adobe Illustrator 25.4.0, SVG Export Plug-In . SVG Version: 6.00 Build 0)  -->
<svg version="1.1" id="Livello_1" xmlns="http://www.w3.org/2000/svg" xmlns:xlink="http://www.w3.org/1999/xlink" x="0px" y="0px"
	 viewBox="0 0 409.9 420.3" style="enable-background:new 0 0 409.9 420.3;" xml:space="preserve">
<style type="text/css">
	.st0{fill:none;stroke:#F7B21A;stroke-width:3;stroke-miterlimit:10;}
</style>
<path class="st0" d="M158.8,389.4c7.4,2,8.9-3.3,7.5-8.5c-2.2-8.2-10.4-16.1-16.3-22.2c-10.7-11-22.5-20.9-36.5-28.6
	c-4.1-2.2-9.7-6-14.9-5.7c-0.7,3.1,7.9,7.5,10.2,9.3c12.3,9,25.6,17.1,38.8,25.1c7.4,4.5,49.7,30.2,59,16.3c3.7-5.5-5.9-15-8.8-18.7
	c-13-16.3-29.3-30-46.3-43c-20.3-15.4-42.5-29.7-66.3-41.1c-7.6-3.6-19.3-11.3-28.7-10.9c0.4,6,17.3,13.7,22.3,16.9
	c22,14.3,44,28.8,65.7,43.5c7.7,5.3,78.5,54.3,85.3,26.9c2.6-10.5-8.5-23.1-14.3-30.8c-18.3-24.3-42.1-46.2-67.4-65
	c-26.1-19.5-53.3-37.4-83.3-52.1c-6.7-3.3-26.8-15.9-35.3-12.6c4.3,6.7,14.6,10.6,21.7,14.8c26.4,15.9,52,32.9,76.4,50.8
	c26.5,19.4,52.7,40.3,81.7,56.9c6,3.4,29.4,18.5,37.6,10.3c7.4-7.5-7.7-28.7-11.2-34.4c-15.7-26.3-37.6-50.4-60.6-72.1
	c-25.5-23.9-52.6-45.3-83.5-64c-10.6-6.4-23.3-14-36-17c-2.9-0.7-4.8-1.5-7.6-0.5c0.8,4.4,6.4,7.2,10.1,9.7
	c11.6,7.8,23.3,15.5,34.9,23.3c38,25.5,73.2,53.9,108.9,81.8c17.2,13.5,35,27.6,55,38c5.9,3.1,18.1,9.5,25.9,6.7
	c16.1-5.9-7.1-37-11.1-43.3c-22.5-35.5-53.6-67-87.9-94.3c-29-22.9-61.1-45.1-97.9-58.2c-3.9-1.4-25.8-8.7-16.4,1.4
	c5.4,5.9,14.1,10.4,20.8,15.1c14.3,10.1,28.8,20.2,43,30.5c35.3,25.7,70.2,51.9,105,78.2c14.1,10.7,28.3,21.5,42.8,31.6
	c6.7,4.7,17.9,14.2,27.3,14.9c15.3,1.1,1.7-22.3-0.4-27.1c-12.4-28.3-35.9-54.8-58.3-77.4c-29.2-29.3-63.8-58.1-104.1-75.4
	c-3.2-1.3-36.8-15.8-37.7-8c-0.4,3.7,9.5,9.3,12,11c11,7.7,22.3,15.2,33.4,22.9c31.7,22,63.5,43.9,94.3,66.8
	c17.3,12.8,34.8,25.7,52.9,37.7c9.9,6.6,20.8,14.3,33.5,16.9c14,2.9,13.8-6.2,10.4-15.1c-10.3-27.6-33.2-51.9-53.6-74.1
	c-25.9-28.1-55.5-54-89.6-74.7c-3.2-1.9-50.2-29.7-53.3-21.3c-0.8,2.1,5.2,6.8,6.5,7.9c7.4,6.6,15.5,12.7,23.6,18.7
	c28.3,20.9,58,40.6,86.4,61.6c23.1,17.1,48.7,37.2,76.8,48.1c7.8,3.1,23.7,7.2,20.6-5.4c-1.8-7.2-7.6-15.5-11.6-21.7
	c-8.3-12.1-18.3-23.6-28.6-34.4c-25.8-27.2-55.9-50.1-88.6-70.7c-11.7-7.4-23.6-14.8-37-19.7c-1.7-0.6-13.2-5.6-15.5-3.4
	c-6.7,6.8,69,57.2,74.6,61.5c26.5,20.3,53.6,40.1,81,59.6c5.4,3.8,32.2,26.6,41.8,20.2c7.6-5-6.4-24.3-8.9-28.5
	c-12.2-20.3-31.1-39.2-49.9-55.1c-25.5-21.8-53-40.1-81.2-59"/>
</svg>
